<svg width="20" height="12" viewBox="0 0 20 12" fill="none" xmlns="http://www.w3.org/2000/svg">
<path d="M5.81755 0C6.39452 0 6.92815 0.0428571 7.41573 0.169714C7.90421 0.254571 8.3042 0.424286 8.65905 0.636C9.01481 0.848 9.28117 1.14486 9.45814 1.52657C9.63602 1.908 9.72541 2.37514 9.72541 2.88343C9.72541 3.47743 9.59178 3.98571 9.28117 4.36714C9.01481 4.74943 8.57057 5.088 8.03784 5.34257C8.79269 5.55514 9.36966 5.93657 9.72541 6.44485C10.0812 6.95314 10.3024 7.59 10.3024 8.31085C10.3024 8.90485 10.1687 9.41314 9.94663 9.83742C9.72541 10.2617 9.36966 10.6431 8.96966 10.8977C8.53498 11.1703 8.05473 11.3708 7.54936 11.4909C7.01663 11.6186 6.48391 11.7034 5.95118 11.7034H0V0H5.81755ZM5.4618 4.74857C5.95028 4.74857 6.35027 4.62171 6.66088 4.41C6.97149 4.19828 7.10512 3.816 7.10512 3.34971C7.10512 3.09514 7.05997 2.84057 6.97149 2.67171C6.883 2.50286 6.74937 2.37428 6.57239 2.24743C6.39144 2.15095 6.19683 2.07965 5.99452 2.03571C5.7724 1.99286 5.55119 1.99286 5.28392 1.99286H2.70878V4.74943L5.4618 4.74857ZM5.59543 9.75257C5.86179 9.75257 6.12815 9.70971 6.35027 9.66771C6.57239 9.62485 6.79451 9.54085 6.97149 9.41314C7.15171 9.2883 7.30293 9.12958 7.41573 8.94685C7.50421 8.73514 7.5936 8.48057 7.5936 8.184C7.5936 7.59 7.41573 7.16571 7.06088 6.86914C6.70512 6.61457 6.21664 6.48771 5.63967 6.48771H2.70878V9.75342L5.59543 9.75257ZM14.166 9.70971C14.5211 10.0491 15.0539 10.2189 15.7642 10.2189C16.2527 10.2189 16.6969 10.092 17.0517 9.88028C17.4075 9.62542 17.6296 9.37085 17.7181 9.11657H19.8942C19.5384 10.134 19.0057 10.8549 18.296 11.3211C17.5845 11.7454 16.7411 12 15.7199 12C15.0666 12.0009 14.4189 11.8858 13.8102 11.6606C13.2623 11.4666 12.7738 11.1461 12.389 10.728C11.9758 10.3383 11.6708 9.85736 11.5015 9.32828C11.2793 8.77714 11.19 8.184 11.19 7.50514C11.19 6.86914 11.2793 6.276 11.5015 5.724C11.7145 5.19222 12.0309 4.70317 12.4342 4.28228C12.8333 3.90086 13.3218 3.56228 13.8545 3.34971C14.4475 3.12369 15.0809 3.00844 15.7199 3.01028C16.4748 3.01028 17.1411 3.138 17.7181 3.43457C18.296 3.73114 18.7393 4.07057 19.0942 4.57971C19.4499 5.046 19.7172 5.59714 19.8942 6.19114C19.9826 6.78428 20.0269 7.37828 19.9826 8.05628H13.5439C13.5439 8.73514 13.8102 9.37114 14.166 9.71057M16.9633 5.25857C16.6527 4.962 16.1642 4.79228 15.5863 4.79228C15.2475 4.78746 14.9124 4.86007 14.6093 5.004C14.343 5.13171 14.166 5.30143 13.9881 5.47114C13.8236 5.6344 13.7153 5.84125 13.6775 6.06428C13.6324 6.27685 13.5881 6.44571 13.5881 6.61543H17.5845C17.496 5.97943 17.2739 5.556 16.9633 5.25857ZM13.0554 0.805714H18.0287V1.95086H13.0563L13.0554 0.805714Z" fill="white"/>
</svg>
