<svg width="21" height="16" viewBox="0 0 21 16" fill="none" xmlns="http://www.w3.org/2000/svg">
<path d="M19.7338 4.78181C19.7775 4.78093 19.7775 4.78093 19.8221 4.78003C20.0029 4.77988 20.1285 4.80133 20.2843 4.90289C20.3574 5.01255 20.3574 5.01255 20.3597 5.13363C20.3063 5.31887 20.2245 5.38656 20.065 5.48773C19.7536 5.63053 19.4194 5.69209 19.085 5.75502C19.0573 5.76032 19.0297 5.76563 19.0012 5.77109C18.4903 5.86886 17.9771 5.95102 17.4629 6.02916C17.4277 6.03453 17.3924 6.03989 17.3561 6.04542C15.6047 6.31046 15.6047 6.31046 15.2767 6.10912C15.2378 6.02687 15.2378 6.02687 15.2401 5.92636C15.2949 5.79842 15.2949 5.79842 15.3498 5.67049C15.3426 5.56702 15.3426 5.56702 15.3132 5.48773C14.9765 5.35419 14.5672 5.26311 14.2198 5.40777C13.8702 5.60679 13.6996 5.89306 13.5657 6.26418C13.4282 6.76681 13.5175 7.32773 13.762 7.78124C13.9149 8.02095 14.1186 8.19996 14.3994 8.26569C14.5833 8.2769 14.7636 8.27443 14.9477 8.26569C14.9477 8.25363 14.9477 8.24157 14.9477 8.22914C14.9252 8.22778 14.9028 8.22641 14.8796 8.225C14.8501 8.2226 14.8205 8.2202 14.7901 8.21772C14.7608 8.2156 14.7316 8.21348 14.7014 8.21129C14.6041 8.18928 14.5708 8.15982 14.5091 8.08293C14.4567 7.97817 14.4613 7.90701 14.4725 7.79052C14.5538 7.61736 14.6652 7.50661 14.8346 7.42242C15.2915 7.28512 15.7402 7.39509 16.1807 7.53502C16.6808 7.68461 17.1988 7.74077 17.7149 7.8093C18.0451 7.85351 18.3729 7.89889 18.6977 7.97399C18.7222 7.97958 18.7467 7.98516 18.772 7.99092C18.9736 8.04044 19.143 8.08888 19.2609 8.26569C19.2943 8.41583 19.2913 8.54384 19.2113 8.67734C19.0637 8.85367 18.9141 8.9758 18.6806 9.01387C17.9462 9.02122 17.2152 8.74865 16.5151 8.54965C16.0025 8.41288 15.652 8.49952 15.1966 8.74643C14.8539 8.90708 14.374 8.8347 14.0326 8.7136C13.505 8.49046 13.2274 8.12492 13.0104 7.60776C12.805 7.07389 12.8433 6.41771 13.047 5.8898C13.1093 5.75828 13.1803 5.64149 13.2663 5.52428C13.2851 5.49846 13.3038 5.47264 13.3231 5.44604C13.621 5.07257 14.0304 4.89249 14.4954 4.83664C14.8666 4.81362 15.2912 4.83423 15.6056 5.0491C15.6373 5.07059 15.669 5.09207 15.7016 5.11421C15.7663 5.15905 15.8306 5.20446 15.8943 5.25057C16.1336 5.41997 16.4723 5.3644 16.7494 5.32396C17.3399 5.22267 17.9251 5.08963 18.5082 4.95264C18.9145 4.85802 19.3153 4.78006 19.7338 4.78181Z" fill="white"/>
<path d="M11.124 4.9019C11.262 5.00925 11.2986 5.13421 11.3579 5.29535C11.3704 5.32797 11.383 5.3606 11.396 5.39422C11.4374 5.50207 11.4779 5.61023 11.5185 5.71841C11.5472 5.79359 11.5759 5.86876 11.6047 5.9439C11.665 6.1012 11.725 6.2586 11.7848 6.41606C11.8758 6.65473 11.969 6.89251 12.0628 7.13009C12.0778 7.16811 12.0928 7.20612 12.1082 7.24529C12.1665 7.39302 12.2248 7.54075 12.2832 7.68842C12.3235 7.79034 12.3635 7.89234 12.4036 7.99435C12.4153 8.02391 12.4271 8.05347 12.4392 8.08392C12.519 8.28795 12.5839 8.49376 12.6448 8.70426C12.4397 8.70426 12.2346 8.70426 12.0234 8.70426C11.9753 8.55503 11.9274 8.40577 11.8794 8.2565C11.8658 8.21414 11.8522 8.17178 11.8381 8.12814C11.825 8.08738 11.812 8.04663 11.7985 8.00463C11.7864 7.96712 11.7744 7.9296 11.7619 7.89094C11.7368 7.80947 11.7151 7.72696 11.6944 7.64425C11.1516 7.63219 10.6088 7.62013 10.0495 7.6077C10.0375 7.69213 10.0254 7.77657 10.013 7.86356C9.99476 7.93363 9.97494 8.00331 9.95345 8.07245C9.94203 8.10956 9.9306 8.14667 9.91883 8.1849C9.90693 8.22285 9.89504 8.2608 9.88278 8.29991C9.87074 8.33885 9.8587 8.37779 9.8463 8.41792C9.81675 8.51342 9.78696 8.60885 9.75713 8.70426C9.55207 8.70426 9.34701 8.70426 9.13574 8.70426C9.22442 8.43218 9.32205 8.16394 9.42131 7.89555C9.54154 7.56997 9.66029 7.24395 9.77612 6.91678C10.167 5.81357 10.167 5.81357 10.3465 5.39172C10.359 5.36213 10.3715 5.33254 10.3844 5.30205C10.4506 5.15148 10.5194 5.02334 10.6344 4.90284C10.803 4.84664 10.9595 4.83498 11.124 4.9019ZM10.8171 5.48767C10.739 5.72123 10.6609 5.95481 10.5829 6.18842C10.5563 6.26796 10.5297 6.34749 10.5031 6.42701C10.465 6.54104 10.4269 6.65509 10.3888 6.76914C10.3708 6.82283 10.3708 6.82283 10.3525 6.8776C10.336 6.92699 10.336 6.92699 10.3192 6.97738C10.3095 7.00652 10.2997 7.03566 10.2897 7.06568C10.267 7.12667 10.267 7.12667 10.2689 7.16907C10.6428 7.16907 11.0167 7.16907 11.402 7.16907C11.4107 6.92912 11.4107 6.92912 11.3562 6.72383C11.3411 6.6847 11.3411 6.6847 11.3258 6.64477C11.3149 6.61773 11.3039 6.59068 11.2926 6.56282C11.2814 6.5342 11.2702 6.50558 11.2587 6.47609C11.2352 6.41611 11.2114 6.35621 11.1874 6.29641C11.1506 6.2047 11.1145 6.11273 11.0786 6.02068C11.0555 5.96226 11.0325 5.90386 11.0093 5.84548C10.9985 5.818 10.9877 5.79051 10.9766 5.76219C10.9167 5.61254 10.9167 5.61254 10.8171 5.48767Z" fill="white"/>
<path d="M2.98983 5.29178C3.178 5.49994 3.23927 5.72752 3.2871 5.99941C3.10499 6.06945 2.93157 6.09279 2.73882 6.10907C2.72553 6.07267 2.72553 6.07267 2.71198 6.03553C2.58388 5.69805 2.44827 5.52946 2.11743 5.37802C1.80185 5.27983 1.49342 5.34213 1.20363 5.48768C0.892276 5.68073 0.726554 6.00611 0.641639 6.35579C0.563398 6.85831 0.585537 7.42406 0.85881 7.866C1.03578 8.10468 1.24065 8.21638 1.5326 8.26564C1.87173 8.29977 2.20861 8.27799 2.48524 8.06004C2.66996 7.86895 2.75922 7.63517 2.84848 7.38839C3.2344 7.45883 3.2344 7.45883 3.39676 7.5346C3.29292 7.96271 3.09319 8.33919 2.71655 8.58333C2.24155 8.85561 1.70999 8.89184 1.18307 8.75453C0.737355 8.60768 0.481382 8.35843 0.264694 7.95038C-0.0203124 7.36272 -0.0714394 6.63308 0.0933559 5.99941C0.16554 5.79295 0.259711 5.61917 0.39948 5.45113C0.420495 5.42564 0.44151 5.40014 0.463161 5.37388C0.716434 5.09486 1.05471 4.93269 1.42294 4.86629C1.44617 4.86144 1.4694 4.85659 1.49333 4.85158C2.03779 4.76033 2.59427 4.91234 2.98983 5.29178Z" fill="white"/>
<path d="M14.024 9.7181C14.4262 10.0378 14.8065 10.3832 15.1819 10.7337C15.2405 10.7881 15.2995 10.8421 15.3587 10.896C15.5677 11.0867 15.773 11.2804 15.9735 11.48C15.9931 11.4994 16.0127 11.5188 16.0329 11.5388C16.0862 11.5924 16.1386 11.6467 16.1905 11.7016C16.2199 11.7325 16.2492 11.7635 16.2795 11.7954C16.3367 11.8843 16.3367 11.8843 16.3349 11.9777C16.2594 12.1721 16.1079 12.3152 15.9392 12.4326C15.7045 12.5077 15.5287 12.4977 15.3064 12.3869C15.1476 12.29 15.0037 12.1811 14.8628 12.0601C14.8408 12.0412 14.8189 12.0224 14.7963 12.003C14.4796 11.7265 14.1897 11.4218 13.8963 11.1211C13.5922 10.8098 13.294 10.527 12.9374 10.276C12.7603 10.1411 12.7603 10.1411 12.7181 10.0567C12.7024 9.9037 12.7017 9.76859 12.7592 9.62494C13.1609 9.15632 13.6207 9.40372 14.024 9.7181Z" fill="white"/>
<path d="M11.2558 10.7513C11.4741 10.8681 11.515 11.0707 11.5847 11.2927C11.5982 11.3343 11.6117 11.3759 11.6256 11.4188C12.4386 13.9851 12.4386 13.9851 12.3158 14.4431C12.229 14.6076 12.134 14.73 11.9571 14.7972C11.7632 14.8249 11.5757 14.832 11.402 14.7355C11.2737 14.5177 11.205 14.2637 11.1333 14.023C11.1169 13.9686 11.1169 13.9686 11.1002 13.9132C10.9761 13.4946 10.8709 13.0714 10.7669 12.6474C10.7472 12.5683 10.7276 12.4891 10.7079 12.41C10.6724 12.2666 10.6368 12.1232 10.6016 11.9798C10.5947 11.9515 10.5877 11.9233 10.5806 11.8942C10.5121 11.6001 10.4436 11.2586 10.6024 10.9843C10.7633 10.7712 10.9954 10.6938 11.2558 10.7513Z" fill="white"/>
<path d="M8.73348 11.4091C8.83684 11.5176 8.90242 11.6338 8.95279 11.7746C8.94621 11.9173 8.89052 12.0428 8.84314 12.1767C8.81286 12.2834 8.78669 12.391 8.76089 12.4988C8.75329 12.5302 8.74569 12.5616 8.73786 12.5939C8.66362 12.9109 8.60653 13.2307 8.54903 13.551C8.24055 15.2683 8.24055 15.2683 7.89049 15.5806C7.6862 15.711 7.54759 15.7377 7.30794 15.7223C7.19829 15.6492 7.19829 15.6492 7.17357 15.5809C7.13313 15.3146 7.17371 15.0624 7.23027 14.8016C7.23815 14.7647 7.24603 14.7279 7.25415 14.6899C7.4279 13.9011 7.63307 13.1153 7.88592 12.348C7.89866 12.3091 7.91139 12.2702 7.92451 12.2301C8.04229 11.8846 8.15924 11.5713 8.49817 11.3977C8.59997 11.369 8.6361 11.3706 8.73348 11.4091Z" fill="white"/>
<path d="M6.83314 11.2264C6.90396 11.2835 6.90396 11.2835 6.9428 11.3726C6.96276 11.5774 6.95406 11.6825 6.8222 11.8503C6.8047 11.8713 6.7872 11.8924 6.76918 11.9141C6.73157 11.9624 6.69417 12.0108 6.65695 12.0594C6.63757 12.0846 6.61819 12.1099 6.59823 12.1358C6.50369 12.2632 6.41918 12.3964 6.33512 12.5309C6.31739 12.5592 6.29966 12.5874 6.2814 12.6166C6.16977 12.796 6.0604 12.9767 5.95161 13.1578C4.93175 14.8549 4.93175 14.8549 4.4938 15.0644C4.36358 15.0918 4.36358 15.0918 4.23794 15.0644C4.15278 14.9776 4.09384 14.8874 4.05518 14.772C4.07252 14.627 4.12149 14.5231 4.19496 14.3979C4.21709 14.3601 4.23923 14.3224 4.26203 14.2835C4.2865 14.2427 4.31096 14.2018 4.33617 14.1597C4.34878 14.1386 4.36138 14.1174 4.37437 14.0956C4.84944 13.2992 5.37032 12.522 5.91934 11.7747C5.94601 11.7379 5.97267 11.7011 6.00015 11.6632C6.21631 11.377 6.45915 11.1411 6.83314 11.2264Z" fill="white"/>
<path d="M19.4798 2.05176C19.5432 2.10116 19.5432 2.10116 19.5894 2.16141C19.5855 2.34237 19.5241 2.43099 19.4067 2.56349C19.063 2.83959 18.6264 3.01261 18.2324 3.20315C18.1781 3.22955 18.1781 3.22955 18.1227 3.25649C17.3468 3.63359 16.5676 4.01043 15.7674 4.33398C15.7309 4.34917 15.7309 4.34917 15.6937 4.36467C15.491 4.44298 15.3007 4.46219 15.0935 4.38881C15.0204 4.31799 15.0204 4.31799 14.9976 4.19691C15.0309 4.00038 15.1393 3.88936 15.2957 3.77542C15.9766 3.39556 16.6909 3.07043 17.4036 2.75544C17.5248 2.70129 17.6453 2.64589 17.7658 2.59047C19.0637 1.99534 19.0637 1.99534 19.4798 2.05176Z" fill="white"/>
<path d="M7.16191 4.86633C7.16191 5.98812 7.16191 7.10991 7.16191 8.26569C7.75296 8.26569 8.34401 8.26569 8.95297 8.26569C8.95297 8.41043 8.95297 8.55518 8.95297 8.70431C8.15686 8.70431 7.36076 8.70431 6.54053 8.70431C6.54053 7.48603 6.54053 6.26774 6.54053 5.01254C7.12536 4.86633 7.12536 4.86633 7.16191 4.86633Z" fill="white"/>
<path d="M17.3189 0.475481C17.361 0.476141 17.4031 0.476801 17.4465 0.47748C17.4783 0.478328 17.51 0.479177 17.5427 0.48005C17.5427 0.748511 17.4818 0.869615 17.2952 1.06089C17.1736 1.17606 17.0498 1.28645 16.9213 1.39385C16.8863 1.42392 16.8513 1.45398 16.8153 1.48495C16.5921 1.67636 16.3651 1.86182 16.133 2.04229C15.9955 2.14938 15.86 2.25862 15.7255 2.36944C15.3787 2.65484 15.0205 2.92376 14.6551 3.18491C14.6341 3.20024 14.6131 3.21557 14.5915 3.23137C14.4269 3.34775 14.3403 3.35653 14.1434 3.33112C14.0497 3.27401 14.0497 3.27401 13.9972 3.18491C13.9877 3.02122 14.0285 2.92041 14.1297 2.79654C14.4405 2.46792 14.8024 2.18521 15.1595 1.90904C15.3122 1.79045 15.4595 1.66681 15.6055 1.54006C15.8344 1.34162 16.0697 1.1531 16.3095 0.968061C16.3745 0.917542 16.4389 0.866293 16.5031 0.814874C16.5451 0.781696 16.587 0.748522 16.6289 0.715355C16.6659 0.685906 16.7028 0.656457 16.7409 0.626116C16.9316 0.496529 17.0909 0.470828 17.3189 0.475481Z" fill="white"/>
<path d="M5.44408 10.276C5.55374 10.3491 5.55374 10.3491 5.58801 10.4474C5.59156 10.6356 5.50743 10.7525 5.38754 10.8884C5.25993 11.0193 5.12276 11.1387 4.98433 11.2578C4.8923 11.3391 4.80272 11.4227 4.71319 11.5067C4.5094 11.698 4.30308 11.882 4.08466 12.0567C4.01143 12.1163 3.93993 12.1763 3.86906 12.2386C3.61718 12.4597 3.35838 12.669 3.09104 12.8712C3.04542 12.9061 3.04542 12.9061 2.99888 12.9416C2.55115 13.2766 2.55115 13.2766 2.30288 13.2687C2.26594 13.2582 2.229 13.2476 2.19094 13.2368C2.14941 13.1537 2.14472 13.0985 2.14068 13.006C2.13889 12.9783 2.1371 12.9505 2.13525 12.9219C2.16376 12.792 2.23926 12.7395 2.33715 12.6519C2.36867 12.6226 2.40019 12.5933 2.43267 12.5631C2.60657 12.4056 2.78109 12.249 2.95811 12.0949C3.16118 11.9171 3.36076 11.7354 3.5587 11.5519C3.74746 11.3772 3.94069 11.2113 4.14134 11.0502C4.23624 10.9719 4.32607 10.8899 4.41605 10.806C5.04722 10.2297 5.04722 10.2297 5.44408 10.276Z" fill="white"/>
<path d="M3.65283 5.96289C3.84583 5.99908 4.03882 6.03526 4.23767 6.07255C4.29751 6.25123 4.35732 6.42992 4.41704 6.60865C4.43729 6.66923 4.45757 6.72981 4.47786 6.79037C4.8225 7.81901 4.8225 7.81901 4.8225 7.97326C4.84663 7.97326 4.87075 7.97326 4.89561 7.97326C4.90193 7.95105 4.90825 7.92883 4.91476 7.90595C4.98007 7.68179 5.0566 7.46503 5.14262 7.24807C5.16173 7.19934 5.16173 7.19934 5.18122 7.14963C5.22143 7.04717 5.26183 6.9448 5.30225 6.84243C5.34289 6.73913 5.38348 6.63581 5.42406 6.53249C5.44919 6.46852 5.47437 6.40457 5.4996 6.34064C5.51095 6.31182 5.52231 6.28301 5.534 6.25332C5.54398 6.22804 5.55396 6.20276 5.56424 6.17672C5.58662 6.11821 5.60684 6.05888 5.62665 5.99944C5.80758 5.98738 5.98852 5.97532 6.17493 5.96289C6.09412 6.28084 5.98848 6.58429 5.87195 6.89069C5.85333 6.94001 5.83473 6.98934 5.81614 7.03867C5.77748 7.14113 5.7387 7.24354 5.69983 7.34591C5.64993 7.47731 5.60029 7.60881 5.55074 7.74033C5.5125 7.84177 5.47416 7.94317 5.43578 8.04455C5.41742 8.09307 5.39909 8.1416 5.38078 8.19014C5.35534 8.25753 5.32975 8.32487 5.30416 8.3922C5.28964 8.43052 5.27511 8.46883 5.26015 8.50831C5.22458 8.59465 5.22458 8.59465 5.18802 8.6312C5.08946 8.63388 4.99185 8.63458 4.89332 8.63348C4.86559 8.63332 4.83786 8.63315 4.80929 8.63298C4.74059 8.63255 4.67189 8.6319 4.60319 8.6312C4.47907 8.29957 4.35514 7.96786 4.23146 7.63606C4.17402 7.482 4.11652 7.32797 4.05887 7.17399C4.00325 7.02545 3.94781 6.87685 3.89249 6.7282C3.87134 6.67144 3.85012 6.6147 3.82883 6.55799C3.79908 6.47868 3.76955 6.39929 3.74007 6.31987C3.73119 6.29634 3.7223 6.27281 3.71314 6.24857C3.6758 6.14731 3.65283 6.07191 3.65283 5.96289Z" fill="white"/>
<path d="M4.89582 8.9601C5.00091 9.0332 5.00091 9.0332 5.07858 9.10631C4.96903 9.49583 4.60207 9.68742 4.27443 9.87391C4.10492 9.96599 3.93326 10.0533 3.76042 10.1389C3.73723 10.1505 3.71404 10.162 3.69015 10.174C3.18737 10.4244 2.6741 10.6479 2.1544 10.8608C2.12284 10.8744 2.09127 10.888 2.05875 10.902C1.94051 10.9453 1.84053 10.9433 1.71578 10.9339C1.62236 10.8405 1.6326 10.7753 1.62939 10.6476C1.64751 10.5395 1.68926 10.4753 1.75233 10.3856C1.83926 10.3243 1.83926 10.3243 1.94266 10.27C1.98103 10.2496 2.0194 10.2291 2.05894 10.2081C2.12089 10.1761 2.12089 10.1761 2.1841 10.1435C2.22736 10.1208 2.27061 10.098 2.31384 10.0752C2.44308 10.0074 2.57284 9.94058 2.70269 9.87391C2.73798 9.85568 2.77328 9.83745 2.80965 9.81867C3.22171 9.60657 3.63978 9.40737 4.05969 9.2114C4.0822 9.20085 4.10472 9.19031 4.12792 9.17945C4.19201 9.14949 4.25621 9.11976 4.32041 9.09003C4.3574 9.07288 4.39439 9.05572 4.43251 9.03804C4.58988 8.97143 4.72417 8.94259 4.89582 8.9601Z" fill="white"/>
<path d="M14.4999 0.000266863C14.5427 0.000926516 14.5855 0.00158617 14.6296 0.00226581C14.6785 0.003538 14.6785 0.003538 14.7284 0.00483589C14.7649 0.114492 14.7649 0.114492 14.7367 0.188659C14.5572 0.509723 14.3539 0.814483 14.1491 1.11981C14.0872 1.21212 14.0257 1.30463 13.9641 1.39717C13.7604 1.70268 13.5534 2.00585 13.3407 2.3052C13.3123 2.34575 13.3123 2.34575 13.2833 2.38712C13.1566 2.56353 13.0258 2.72026 12.8276 2.81935C12.7457 2.82678 12.7457 2.82678 12.6495 2.82849C12.6179 2.82943 12.5863 2.83038 12.5538 2.83135C12.4457 2.8172 12.3966 2.78102 12.3159 2.7097C12.3337 2.51023 12.4055 2.38408 12.5124 2.22081C12.5287 2.19539 12.545 2.16997 12.5617 2.14377C12.7415 1.8651 12.9299 1.59235 13.1201 1.32071C13.1568 1.26798 13.1935 1.21525 13.2302 1.16251C13.4021 0.916223 13.5761 0.671554 13.7574 0.432039C13.7853 0.39524 13.8131 0.358441 13.8418 0.320527C14.0387 0.0902024 14.1982 -0.00576701 14.4999 0.000266863Z" fill="white"/>
<path d="M11.8406 0.406971C11.833 0.436043 11.8254 0.465114 11.8176 0.495067C11.7522 0.750874 11.6905 1.00699 11.6341 1.26495C11.6232 1.31437 11.6124 1.36379 11.6015 1.41322C11.5852 1.4872 11.5691 1.5612 11.5533 1.6353C11.3379 2.6478 11.3379 2.6478 10.9999 2.92907C10.8634 3.01032 10.7566 3.01688 10.5978 3.00218C10.4735 2.81573 10.5062 2.6212 10.5483 2.40683C10.5813 2.27169 10.6174 2.13779 10.6549 2.00384C10.6683 1.95532 10.6817 1.9068 10.695 1.85828C10.7347 1.71536 10.7757 1.57286 10.8171 1.43043C10.8288 1.39013 10.8405 1.34982 10.8525 1.3083C10.8838 1.20244 10.9163 1.09706 10.9496 0.991806C10.9588 0.961305 10.9681 0.930805 10.9775 0.899381C11.0447 0.696023 11.127 0.581167 11.2923 0.443523C11.4867 0.362684 11.6324 0.372642 11.8406 0.406971Z" fill="white"/>
<path d="M8.73363 1.50354C8.85438 1.62924 8.90776 1.74349 8.95423 1.91004C8.96646 1.95332 8.97868 1.99659 8.99128 2.04118C9.00351 2.08616 9.01573 2.13113 9.02833 2.17747C9.0407 2.22117 9.05307 2.26487 9.06581 2.3099C9.12822 2.53382 9.18594 2.75872 9.23836 2.98519C9.24767 3.02533 9.25697 3.06548 9.26655 3.10684C9.28673 3.25748 9.27762 3.3831 9.20281 3.51691C9.10332 3.63475 9.04655 3.69019 8.89583 3.73779C8.74855 3.73243 8.69607 3.72341 8.58742 3.62356C8.44089 3.37231 8.37643 3.08309 8.30525 2.80373C8.28587 2.72805 8.26576 2.65259 8.2456 2.57711C8.08442 1.96104 8.08442 1.96104 8.19163 1.74698C8.21067 1.72771 8.2297 1.70844 8.24931 1.68858C8.26797 1.66865 8.28663 1.64872 8.30585 1.62819C8.44145 1.51591 8.55734 1.47783 8.73363 1.50354Z" fill="white"/>
<path d="M6.2115 3.22152C6.56701 3.389 6.86772 3.67903 7.16537 3.93052C7.22945 3.98448 7.29411 4.03767 7.3589 4.09078C7.45851 4.17548 7.51488 4.23346 7.56393 4.35464C7.56618 4.48034 7.56389 4.568 7.47955 4.66619C7.34984 4.77811 7.24711 4.82522 7.07733 4.84124C6.82656 4.81999 6.64796 4.62506 6.46508 4.4643C6.44152 4.44361 6.41795 4.42292 6.39367 4.40161C6.34491 4.35866 6.2962 4.31563 6.24757 4.27252C6.1771 4.21033 6.10603 4.1489 6.03488 4.0875C5.99168 4.04941 5.94851 4.01129 5.90538 3.97313C5.88516 3.95591 5.86494 3.93868 5.84411 3.92094C5.74894 3.83532 5.70201 3.77753 5.66607 3.65344C5.66242 3.52153 5.69155 3.47074 5.77288 3.36773C5.91517 3.22148 6.00936 3.18566 6.2115 3.22152Z" fill="white"/>
<path d="M19.7338 4.78181C19.7775 4.78093 19.7775 4.78093 19.8221 4.78003C20.0029 4.77988 20.1285 4.80133 20.2843 4.90289C20.3574 5.01255 20.3574 5.01255 20.3597 5.13363C20.3063 5.31887 20.2245 5.38656 20.065 5.48773C19.7536 5.63053 19.4194 5.69209 19.085 5.75502C19.0573 5.76032 19.0297 5.76563 19.0012 5.77109C18.4903 5.86886 17.9771 5.95102 17.4629 6.02916C17.4277 6.03453 17.3924 6.03989 17.3561 6.04542C15.6047 6.31046 15.6047 6.31046 15.2767 6.10912C15.2378 6.02687 15.2378 6.02687 15.2401 5.92636C15.2949 5.79842 15.2949 5.79842 15.3498 5.67049C15.3426 5.56702 15.3426 5.56702 15.3132 5.48773C14.9765 5.35419 14.5672 5.26311 14.2198 5.40777C13.8702 5.60679 13.6996 5.89306 13.5657 6.26418C13.4282 6.76681 13.5175 7.32773 13.762 7.78124C13.9149 8.02095 14.1186 8.19996 14.3994 8.26569C14.5833 8.2769 14.7636 8.27443 14.9477 8.26569C14.9477 8.25363 14.9477 8.24157 14.9477 8.22914C14.9252 8.22778 14.9028 8.22641 14.8796 8.225C14.8501 8.2226 14.8205 8.2202 14.7901 8.21772C14.7608 8.2156 14.7316 8.21348 14.7014 8.21129C14.6041 8.18928 14.5708 8.15982 14.5091 8.08293C14.4567 7.97817 14.4613 7.90701 14.4725 7.79052C14.5538 7.61736 14.6652 7.50661 14.8346 7.42242C15.2915 7.28512 15.7402 7.39509 16.1807 7.53502C16.6808 7.68461 17.1988 7.74077 17.7149 7.8093C18.0451 7.85351 18.3729 7.89889 18.6977 7.97399C18.7222 7.97958 18.7467 7.98516 18.772 7.99092C18.9736 8.04044 19.143 8.08888 19.2609 8.26569C19.2943 8.41583 19.2913 8.54384 19.2113 8.67734C19.0637 8.85367 18.9141 8.9758 18.6806 9.01387C17.9462 9.02122 17.2152 8.74865 16.5151 8.54965C16.0025 8.41288 15.652 8.49952 15.1966 8.74643C14.8539 8.90708 14.374 8.8347 14.0326 8.7136C13.505 8.49046 13.2274 8.12492 13.0104 7.60776C12.805 7.07389 12.8433 6.41771 13.047 5.8898C13.1093 5.75828 13.1803 5.64149 13.2663 5.52428C13.2851 5.49846 13.3038 5.47264 13.3231 5.44604C13.621 5.07257 14.0304 4.89249 14.4954 4.83664C14.8666 4.81362 15.2912 4.83423 15.6056 5.0491C15.6373 5.07059 15.669 5.09207 15.7016 5.11421C15.7663 5.15905 15.8306 5.20446 15.8943 5.25057C16.1336 5.41997 16.4723 5.3644 16.7494 5.32396C17.3399 5.22267 17.9251 5.08963 18.5082 4.95264C18.9145 4.85802 19.3153 4.78006 19.7338 4.78181Z" fill="white"/>
<path d="M11.124 4.9019C11.262 5.00925 11.2986 5.13421 11.3579 5.29535C11.3704 5.32797 11.383 5.3606 11.396 5.39422C11.4374 5.50207 11.4779 5.61023 11.5185 5.71841C11.5472 5.79359 11.5759 5.86876 11.6047 5.9439C11.665 6.1012 11.725 6.2586 11.7848 6.41606C11.8758 6.65473 11.969 6.89251 12.0628 7.13009C12.0778 7.16811 12.0928 7.20612 12.1082 7.24529C12.1665 7.39302 12.2248 7.54075 12.2832 7.68842C12.3235 7.79034 12.3635 7.89234 12.4036 7.99435C12.4153 8.02391 12.4271 8.05347 12.4392 8.08392C12.519 8.28795 12.5839 8.49376 12.6448 8.70426C12.4397 8.70426 12.2346 8.70426 12.0234 8.70426C11.9753 8.55503 11.9274 8.40577 11.8794 8.2565C11.8658 8.21414 11.8522 8.17178 11.8381 8.12814C11.825 8.08738 11.812 8.04663 11.7985 8.00463C11.7864 7.96712 11.7744 7.9296 11.7619 7.89094C11.7368 7.80947 11.7151 7.72696 11.6944 7.64425C11.1516 7.63219 10.6088 7.62013 10.0495 7.6077C10.0375 7.69213 10.0254 7.77657 10.013 7.86356C9.99476 7.93363 9.97494 8.00331 9.95345 8.07245C9.94203 8.10956 9.9306 8.14667 9.91883 8.1849C9.90693 8.22285 9.89504 8.2608 9.88278 8.29991C9.87074 8.33885 9.8587 8.37779 9.8463 8.41792C9.81675 8.51342 9.78696 8.60885 9.75713 8.70426C9.55207 8.70426 9.34701 8.70426 9.13574 8.70426C9.22442 8.43218 9.32205 8.16394 9.42131 7.89555C9.54154 7.56997 9.66029 7.24395 9.77612 6.91678C10.167 5.81357 10.167 5.81357 10.3465 5.39172C10.359 5.36213 10.3715 5.33254 10.3844 5.30205C10.4506 5.15148 10.5194 5.02334 10.6344 4.90284C10.803 4.84664 10.9595 4.83498 11.124 4.9019ZM10.8171 5.48767C10.739 5.72123 10.6609 5.95481 10.5829 6.18842C10.5563 6.26796 10.5297 6.34749 10.5031 6.42701C10.465 6.54104 10.4269 6.65509 10.3888 6.76914C10.3708 6.82283 10.3708 6.82283 10.3525 6.8776C10.336 6.92699 10.336 6.92699 10.3192 6.97738C10.3095 7.00652 10.2997 7.03566 10.2897 7.06568C10.267 7.12667 10.267 7.12667 10.2689 7.16907C10.6428 7.16907 11.0167 7.16907 11.402 7.16907C11.4107 6.92912 11.4107 6.92912 11.3562 6.72383C11.3411 6.6847 11.3411 6.6847 11.3258 6.64477C11.3149 6.61773 11.3039 6.59068 11.2926 6.56282C11.2814 6.5342 11.2702 6.50558 11.2587 6.47609C11.2352 6.41611 11.2114 6.35621 11.1874 6.29641C11.1506 6.2047 11.1145 6.11273 11.0786 6.02068C11.0555 5.96226 11.0325 5.90386 11.0093 5.84548C10.9985 5.818 10.9877 5.79051 10.9766 5.76219C10.9167 5.61254 10.9167 5.61254 10.8171 5.48767Z" fill="white"/>
<path d="M2.98983 5.29178C3.178 5.49994 3.23927 5.72752 3.2871 5.99941C3.10499 6.06945 2.93157 6.09279 2.73882 6.10907C2.72553 6.07267 2.72553 6.07267 2.71198 6.03553C2.58388 5.69805 2.44827 5.52946 2.11743 5.37802C1.80185 5.27983 1.49342 5.34213 1.20363 5.48768C0.892276 5.68073 0.726554 6.00611 0.641639 6.35579C0.563398 6.85831 0.585537 7.42406 0.85881 7.866C1.03578 8.10468 1.24065 8.21638 1.5326 8.26564C1.87173 8.29977 2.20861 8.27799 2.48524 8.06004C2.66996 7.86895 2.75922 7.63517 2.84848 7.38839C3.2344 7.45883 3.2344 7.45883 3.39676 7.5346C3.29292 7.96271 3.09319 8.33919 2.71655 8.58333C2.24155 8.85561 1.70999 8.89184 1.18307 8.75453C0.737355 8.60768 0.481382 8.35843 0.264694 7.95038C-0.0203124 7.36272 -0.0714394 6.63308 0.0933559 5.99941C0.16554 5.79295 0.259711 5.61917 0.39948 5.45113C0.420495 5.42564 0.44151 5.40014 0.463161 5.37388C0.716434 5.09486 1.05471 4.93269 1.42294 4.86629C1.44617 4.86144 1.4694 4.85659 1.49333 4.85158C2.03779 4.76033 2.59427 4.91234 2.98983 5.29178Z" fill="white"/>
<path d="M14.024 9.7181C14.4262 10.0378 14.8065 10.3832 15.1819 10.7337C15.2405 10.7881 15.2995 10.8421 15.3587 10.896C15.5677 11.0867 15.773 11.2804 15.9735 11.48C15.9931 11.4994 16.0127 11.5188 16.0329 11.5388C16.0862 11.5924 16.1386 11.6467 16.1905 11.7016C16.2199 11.7325 16.2492 11.7635 16.2795 11.7954C16.3367 11.8843 16.3367 11.8843 16.3349 11.9777C16.2594 12.1721 16.1079 12.3152 15.9392 12.4326C15.7045 12.5077 15.5287 12.4977 15.3064 12.3869C15.1476 12.29 15.0037 12.1811 14.8628 12.0601C14.8408 12.0412 14.8189 12.0224 14.7963 12.003C14.4796 11.7265 14.1897 11.4218 13.8963 11.1211C13.5922 10.8098 13.294 10.527 12.9374 10.276C12.7603 10.1411 12.7603 10.1411 12.7181 10.0567C12.7024 9.9037 12.7017 9.76859 12.7592 9.62494C13.1609 9.15632 13.6207 9.40372 14.024 9.7181Z" fill="white"/>
<path d="M11.2558 10.7513C11.4741 10.8681 11.515 11.0707 11.5847 11.2927C11.5982 11.3343 11.6117 11.3759 11.6256 11.4188C12.4386 13.9851 12.4386 13.9851 12.3158 14.4431C12.229 14.6076 12.134 14.73 11.9571 14.7972C11.7632 14.8249 11.5757 14.832 11.402 14.7355C11.2737 14.5177 11.205 14.2637 11.1333 14.023C11.1169 13.9686 11.1169 13.9686 11.1002 13.9132C10.9761 13.4946 10.8709 13.0714 10.7669 12.6474C10.7472 12.5683 10.7276 12.4891 10.7079 12.41C10.6724 12.2666 10.6368 12.1232 10.6016 11.9798C10.5947 11.9515 10.5877 11.9233 10.5806 11.8942C10.5121 11.6001 10.4436 11.2586 10.6024 10.9843C10.7633 10.7712 10.9954 10.6938 11.2558 10.7513Z" fill="white"/>
<path d="M8.73348 11.4091C8.83684 11.5176 8.90242 11.6338 8.95279 11.7746C8.94621 11.9173 8.89052 12.0428 8.84314 12.1767C8.81286 12.2834 8.78669 12.391 8.76089 12.4988C8.75329 12.5302 8.74569 12.5616 8.73786 12.5939C8.66362 12.9109 8.60653 13.2307 8.54903 13.551C8.24055 15.2683 8.24055 15.2683 7.89049 15.5806C7.6862 15.711 7.54759 15.7377 7.30794 15.7223C7.19829 15.6492 7.19829 15.6492 7.17357 15.5809C7.13313 15.3146 7.17371 15.0624 7.23027 14.8016C7.23815 14.7647 7.24603 14.7279 7.25415 14.6899C7.4279 13.9011 7.63307 13.1153 7.88592 12.348C7.89866 12.3091 7.91139 12.2702 7.92451 12.2301C8.04229 11.8846 8.15924 11.5713 8.49817 11.3977C8.59997 11.369 8.6361 11.3706 8.73348 11.4091Z" fill="white"/>
<path d="M6.83314 11.2264C6.90396 11.2835 6.90396 11.2835 6.9428 11.3726C6.96276 11.5774 6.95406 11.6825 6.8222 11.8503C6.8047 11.8713 6.7872 11.8924 6.76918 11.9141C6.73157 11.9624 6.69417 12.0108 6.65695 12.0594C6.63757 12.0846 6.61819 12.1099 6.59823 12.1358C6.50369 12.2632 6.41918 12.3964 6.33512 12.5309C6.31739 12.5592 6.29966 12.5874 6.2814 12.6166C6.16977 12.796 6.0604 12.9767 5.95161 13.1578C4.93175 14.8549 4.93175 14.8549 4.4938 15.0644C4.36358 15.0918 4.36358 15.0918 4.23794 15.0644C4.15278 14.9776 4.09384 14.8874 4.05518 14.772C4.07252 14.627 4.12149 14.5231 4.19496 14.3979C4.21709 14.3601 4.23923 14.3224 4.26203 14.2835C4.2865 14.2427 4.31096 14.2018 4.33617 14.1597C4.34878 14.1386 4.36138 14.1174 4.37437 14.0956C4.84944 13.2992 5.37032 12.522 5.91934 11.7747C5.94601 11.7379 5.97267 11.7011 6.00015 11.6632C6.21631 11.377 6.45915 11.1411 6.83314 11.2264Z" fill="white"/>
<path d="M19.4798 2.05176C19.5432 2.10116 19.5432 2.10116 19.5894 2.16141C19.5855 2.34237 19.5241 2.43099 19.4067 2.56349C19.063 2.83959 18.6264 3.01261 18.2324 3.20315C18.1781 3.22955 18.1781 3.22955 18.1227 3.25649C17.3468 3.63359 16.5676 4.01043 15.7674 4.33398C15.7309 4.34917 15.7309 4.34917 15.6937 4.36467C15.491 4.44298 15.3007 4.46219 15.0935 4.38881C15.0204 4.31799 15.0204 4.31799 14.9976 4.19691C15.0309 4.00038 15.1393 3.88936 15.2957 3.77542C15.9766 3.39556 16.6909 3.07043 17.4036 2.75544C17.5248 2.70129 17.6453 2.64589 17.7658 2.59047C19.0637 1.99534 19.0637 1.99534 19.4798 2.05176Z" fill="white"/>
<path d="M7.16191 4.86633C7.16191 5.98812 7.16191 7.10991 7.16191 8.26569C7.75296 8.26569 8.34401 8.26569 8.95297 8.26569C8.95297 8.41043 8.95297 8.55518 8.95297 8.70431C8.15686 8.70431 7.36076 8.70431 6.54053 8.70431C6.54053 7.48603 6.54053 6.26774 6.54053 5.01254C7.12536 4.86633 7.12536 4.86633 7.16191 4.86633Z" fill="white"/>
<path d="M17.3189 0.475481C17.361 0.476141 17.4031 0.476801 17.4465 0.47748C17.4783 0.478328 17.51 0.479177 17.5427 0.48005C17.5427 0.748511 17.4818 0.869615 17.2952 1.06089C17.1736 1.17606 17.0498 1.28645 16.9213 1.39385C16.8863 1.42392 16.8513 1.45398 16.8153 1.48495C16.5921 1.67636 16.3651 1.86182 16.133 2.04229C15.9955 2.14938 15.86 2.25862 15.7255 2.36944C15.3787 2.65484 15.0205 2.92376 14.6551 3.18491C14.6341 3.20024 14.6131 3.21557 14.5915 3.23137C14.4269 3.34775 14.3403 3.35653 14.1434 3.33112C14.0497 3.27401 14.0497 3.27401 13.9972 3.18491C13.9877 3.02122 14.0285 2.92041 14.1297 2.79654C14.4405 2.46792 14.8024 2.18521 15.1595 1.90904C15.3122 1.79045 15.4595 1.66681 15.6055 1.54006C15.8344 1.34162 16.0697 1.1531 16.3095 0.968061C16.3745 0.917542 16.4389 0.866293 16.5031 0.814874C16.5451 0.781696 16.587 0.748522 16.6289 0.715355C16.6659 0.685906 16.7028 0.656457 16.7409 0.626116C16.9316 0.496529 17.0909 0.470828 17.3189 0.475481Z" fill="white"/>
<path d="M5.44408 10.276C5.55374 10.3491 5.55374 10.3491 5.58801 10.4474C5.59156 10.6356 5.50743 10.7525 5.38754 10.8884C5.25993 11.0193 5.12276 11.1387 4.98433 11.2578C4.8923 11.3391 4.80272 11.4227 4.71319 11.5067C4.5094 11.698 4.30308 11.882 4.08466 12.0567C4.01143 12.1163 3.93993 12.1763 3.86906 12.2386C3.61718 12.4597 3.35838 12.669 3.09104 12.8712C3.04542 12.9061 3.04542 12.9061 2.99888 12.9416C2.55115 13.2766 2.55115 13.2766 2.30288 13.2687C2.26594 13.2582 2.229 13.2476 2.19094 13.2368C2.14941 13.1537 2.14472 13.0985 2.14068 13.006C2.13889 12.9783 2.1371 12.9505 2.13525 12.9219C2.16376 12.792 2.23926 12.7395 2.33715 12.6519C2.36867 12.6226 2.40019 12.5933 2.43267 12.5631C2.60657 12.4056 2.78109 12.249 2.95811 12.0949C3.16118 11.9171 3.36076 11.7354 3.5587 11.5519C3.74746 11.3772 3.94069 11.2113 4.14134 11.0502C4.23624 10.9719 4.32607 10.8899 4.41605 10.806C5.04722 10.2297 5.04722 10.2297 5.44408 10.276Z" fill="white"/>
<path d="M3.65283 5.96289C3.84583 5.99908 4.03882 6.03526 4.23767 6.07255C4.29751 6.25123 4.35732 6.42992 4.41704 6.60865C4.43729 6.66923 4.45757 6.72981 4.47786 6.79037C4.8225 7.81901 4.8225 7.81901 4.8225 7.97326C4.84663 7.97326 4.87075 7.97326 4.89561 7.97326C4.90193 7.95105 4.90825 7.92883 4.91476 7.90595C4.98007 7.68179 5.0566 7.46503 5.14262 7.24807C5.16173 7.19934 5.16173 7.19934 5.18122 7.14963C5.22143 7.04717 5.26183 6.9448 5.30225 6.84243C5.34289 6.73913 5.38348 6.63581 5.42406 6.53249C5.44919 6.46852 5.47437 6.40457 5.4996 6.34064C5.51095 6.31182 5.52231 6.28301 5.534 6.25332C5.54398 6.22804 5.55396 6.20276 5.56424 6.17672C5.58662 6.11821 5.60684 6.05888 5.62665 5.99944C5.80758 5.98738 5.98852 5.97532 6.17493 5.96289C6.09412 6.28084 5.98848 6.58429 5.87195 6.89069C5.85333 6.94001 5.83473 6.98934 5.81614 7.03867C5.77748 7.14113 5.7387 7.24354 5.69983 7.34591C5.64993 7.47731 5.60029 7.60881 5.55074 7.74033C5.5125 7.84177 5.47416 7.94317 5.43578 8.04455C5.41742 8.09307 5.39909 8.1416 5.38078 8.19014C5.35534 8.25753 5.32975 8.32487 5.30416 8.3922C5.28964 8.43052 5.27511 8.46883 5.26015 8.50831C5.22458 8.59465 5.22458 8.59465 5.18802 8.6312C5.08946 8.63388 4.99185 8.63458 4.89332 8.63348C4.86559 8.63332 4.83786 8.63315 4.80929 8.63298C4.74059 8.63255 4.67189 8.6319 4.60319 8.6312C4.47907 8.29957 4.35514 7.96786 4.23146 7.63606C4.17402 7.482 4.11652 7.32797 4.05887 7.17399C4.00325 7.02545 3.94781 6.87685 3.89249 6.7282C3.87134 6.67144 3.85012 6.6147 3.82883 6.55799C3.79908 6.47868 3.76955 6.39929 3.74007 6.31987C3.73119 6.29634 3.7223 6.27281 3.71314 6.24857C3.6758 6.14731 3.65283 6.07191 3.65283 5.96289Z" fill="white"/>
<path d="M4.89582 8.9601C5.00091 9.0332 5.00091 9.0332 5.07858 9.10631C4.96903 9.49583 4.60207 9.68742 4.27443 9.87391C4.10492 9.96599 3.93326 10.0533 3.76042 10.1389C3.73723 10.1505 3.71404 10.162 3.69015 10.174C3.18737 10.4244 2.6741 10.6479 2.1544 10.8608C2.12284 10.8744 2.09127 10.888 2.05875 10.902C1.94051 10.9453 1.84053 10.9433 1.71578 10.9339C1.62236 10.8405 1.6326 10.7753 1.62939 10.6476C1.64751 10.5395 1.68926 10.4753 1.75233 10.3856C1.83926 10.3243 1.83926 10.3243 1.94266 10.27C1.98103 10.2496 2.0194 10.2291 2.05894 10.2081C2.12089 10.1761 2.12089 10.1761 2.1841 10.1435C2.22736 10.1208 2.27061 10.098 2.31384 10.0752C2.44308 10.0074 2.57284 9.94058 2.70269 9.87391C2.73798 9.85568 2.77328 9.83745 2.80965 9.81867C3.22171 9.60657 3.63978 9.40737 4.05969 9.2114C4.0822 9.20085 4.10472 9.19031 4.12792 9.17945C4.19201 9.14949 4.25621 9.11976 4.32041 9.09003C4.3574 9.07288 4.39439 9.05572 4.43251 9.03804C4.58988 8.97143 4.72417 8.94259 4.89582 8.9601Z" fill="white"/>
<path d="M14.4999 0.000266863C14.5427 0.000926516 14.5855 0.00158617 14.6296 0.00226581C14.6785 0.003538 14.6785 0.003538 14.7284 0.00483589C14.7649 0.114492 14.7649 0.114492 14.7367 0.188659C14.5572 0.509723 14.3539 0.814483 14.1491 1.11981C14.0872 1.21212 14.0257 1.30463 13.9641 1.39717C13.7604 1.70268 13.5534 2.00585 13.3407 2.3052C13.3123 2.34575 13.3123 2.34575 13.2833 2.38712C13.1566 2.56353 13.0258 2.72026 12.8276 2.81935C12.7457 2.82678 12.7457 2.82678 12.6495 2.82849C12.6179 2.82943 12.5863 2.83038 12.5538 2.83135C12.4457 2.8172 12.3966 2.78102 12.3159 2.7097C12.3337 2.51023 12.4055 2.38408 12.5124 2.22081C12.5287 2.19539 12.545 2.16997 12.5617 2.14377C12.7415 1.8651 12.9299 1.59235 13.1201 1.32071C13.1568 1.26798 13.1935 1.21525 13.2302 1.16251C13.4021 0.916223 13.5761 0.671554 13.7574 0.432039C13.7853 0.39524 13.8131 0.358441 13.8418 0.320527C14.0387 0.0902024 14.1982 -0.00576701 14.4999 0.000266863Z" fill="white"/>
<path d="M11.8406 0.406971C11.833 0.436043 11.8254 0.465114 11.8176 0.495067C11.7522 0.750874 11.6905 1.00699 11.6341 1.26495C11.6232 1.31437 11.6124 1.36379 11.6015 1.41322C11.5852 1.4872 11.5691 1.5612 11.5533 1.6353C11.3379 2.6478 11.3379 2.6478 10.9999 2.92907C10.8634 3.01032 10.7566 3.01688 10.5978 3.00218C10.4735 2.81573 10.5062 2.6212 10.5483 2.40683C10.5813 2.27169 10.6174 2.13779 10.6549 2.00384C10.6683 1.95532 10.6817 1.9068 10.695 1.85828C10.7347 1.71536 10.7757 1.57286 10.8171 1.43043C10.8288 1.39013 10.8405 1.34982 10.8525 1.3083C10.8838 1.20244 10.9163 1.09706 10.9496 0.991806C10.9588 0.961305 10.9681 0.930805 10.9775 0.899381C11.0447 0.696023 11.127 0.581167 11.2923 0.443523C11.4867 0.362684 11.6324 0.372642 11.8406 0.406971Z" fill="white"/>
<path d="M8.73363 1.50354C8.85438 1.62924 8.90776 1.74349 8.95423 1.91004C8.96646 1.95332 8.97868 1.99659 8.99128 2.04118C9.00351 2.08616 9.01573 2.13113 9.02833 2.17747C9.0407 2.22117 9.05307 2.26487 9.06581 2.3099C9.12822 2.53382 9.18594 2.75872 9.23836 2.98519C9.24767 3.02533 9.25697 3.06548 9.26655 3.10684C9.28673 3.25748 9.27762 3.3831 9.20281 3.51691C9.10332 3.63475 9.04655 3.69019 8.89583 3.73779C8.74855 3.73243 8.69607 3.72341 8.58742 3.62356C8.44089 3.37231 8.37643 3.08309 8.30525 2.80373C8.28587 2.72805 8.26576 2.65259 8.2456 2.57711C8.08442 1.96104 8.08442 1.96104 8.19163 1.74698C8.21067 1.72771 8.2297 1.70844 8.24931 1.68858C8.26797 1.66865 8.28663 1.64872 8.30585 1.62819C8.44145 1.51591 8.55734 1.47783 8.73363 1.50354Z" fill="white"/>
<path d="M6.2115 3.22152C6.56701 3.389 6.86772 3.67903 7.16537 3.93052C7.22945 3.98448 7.29411 4.03767 7.3589 4.09078C7.45851 4.17548 7.51488 4.23346 7.56393 4.35464C7.56618 4.48034 7.56389 4.568 7.47955 4.66619C7.34984 4.77811 7.24711 4.82522 7.07733 4.84124C6.82656 4.81999 6.64796 4.62506 6.46508 4.4643C6.44152 4.44361 6.41795 4.42292 6.39367 4.40161C6.34491 4.35866 6.2962 4.31563 6.24757 4.27252C6.1771 4.21033 6.10603 4.1489 6.03488 4.0875C5.99168 4.04941 5.94851 4.01129 5.90538 3.97313C5.88516 3.95591 5.86494 3.93868 5.84411 3.92094C5.74894 3.83532 5.70201 3.77753 5.66607 3.65344C5.66242 3.52153 5.69155 3.47074 5.77288 3.36773C5.91517 3.22148 6.00936 3.18566 6.2115 3.22152Z" fill="white"/>
</svg>
