<svg width="28" height="28" viewBox="0 0 28 28" fill="none" xmlns="http://www.w3.org/2000/svg">
<rect width="28" height="28" rx="8" fill="black"/>
<path d="M23.7338 10.7818C23.7775 10.7809 23.7775 10.7809 23.8221 10.78C24.0029 10.7799 24.1285 10.8013 24.2843 10.9029C24.3574 11.0126 24.3574 11.0126 24.3597 11.1336C24.3063 11.3189 24.2245 11.3866 24.065 11.4877C23.7536 11.6305 23.4194 11.6921 23.085 11.755C23.0573 11.7603 23.0297 11.7656 23.0012 11.7711C22.4903 11.8689 21.9771 11.951 21.4629 12.0292C21.4277 12.0345 21.3924 12.0399 21.3561 12.0454C19.6047 12.3105 19.6047 12.3105 19.2767 12.1091C19.2378 12.0269 19.2378 12.0269 19.2401 11.9264C19.2949 11.7984 19.2949 11.7984 19.3498 11.6705C19.3426 11.567 19.3426 11.567 19.3132 11.4877C18.9765 11.3542 18.5672 11.2631 18.2198 11.4078C17.8702 11.6068 17.6996 11.8931 17.5657 12.2642C17.4282 12.7668 17.5175 13.3277 17.762 13.7812C17.9149 14.0209 18.1186 14.2 18.3994 14.2657C18.5833 14.2769 18.7636 14.2744 18.9477 14.2657C18.9477 14.2536 18.9477 14.2416 18.9477 14.2291C18.9252 14.2278 18.9028 14.2264 18.8796 14.225C18.8501 14.2226 18.8205 14.2202 18.7901 14.2177C18.7608 14.2156 18.7316 14.2135 18.7014 14.2113C18.6041 14.1893 18.5708 14.1598 18.5091 14.0829C18.4567 13.9782 18.4613 13.907 18.4725 13.7905C18.5538 13.6174 18.6652 13.5066 18.8346 13.4224C19.2915 13.2851 19.7402 13.3951 20.1807 13.535C20.6808 13.6846 21.1988 13.7408 21.7149 13.8093C22.0451 13.8535 22.3729 13.8989 22.6977 13.974C22.7222 13.9796 22.7467 13.9852 22.772 13.9909C22.9736 14.0404 23.143 14.0889 23.2609 14.2657C23.2943 14.4158 23.2913 14.5438 23.2113 14.6773C23.0637 14.8537 22.9141 14.9758 22.6806 15.0139C21.9462 15.0212 21.2152 14.7487 20.5151 14.5497C20.0025 14.4129 19.652 14.4995 19.1966 14.7464C18.8539 14.9071 18.374 14.8347 18.0326 14.7136C17.505 14.4905 17.2274 14.1249 17.0104 13.6078C16.805 13.0739 16.8433 12.4177 17.047 11.8898C17.1093 11.7583 17.1803 11.6415 17.2663 11.5243C17.2851 11.4985 17.3038 11.4726 17.3231 11.446C17.621 11.0726 18.0304 10.8925 18.4954 10.8366C18.8666 10.8136 19.2912 10.8342 19.6056 11.0491C19.6373 11.0706 19.669 11.0921 19.7016 11.1142C19.7663 11.159 19.8306 11.2045 19.8943 11.2506C20.1336 11.42 20.4723 11.3644 20.7494 11.324C21.3399 11.2227 21.9251 11.0896 22.5082 10.9526C22.9145 10.858 23.3153 10.7801 23.7338 10.7818Z" fill="white"/>
<path d="M15.124 10.9019C15.262 11.0092 15.2986 11.1342 15.3579 11.2953C15.3704 11.328 15.383 11.3606 15.396 11.3942C15.4374 11.5021 15.4779 11.6102 15.5185 11.7184C15.5472 11.7936 15.5759 11.8688 15.6047 11.9439C15.665 12.1012 15.725 12.2586 15.7848 12.4161C15.8758 12.6547 15.969 12.8925 16.0628 13.1301C16.0778 13.1681 16.0928 13.2061 16.1082 13.2453C16.1665 13.393 16.2248 13.5407 16.2832 13.6884C16.3235 13.7903 16.3635 13.8923 16.4036 13.9944C16.4153 14.0239 16.4271 14.0535 16.4392 14.0839C16.519 14.288 16.5839 14.4938 16.6448 14.7043C16.4397 14.7043 16.2346 14.7043 16.0234 14.7043C15.9753 14.555 15.9274 14.4058 15.8794 14.2565C15.8658 14.2141 15.8522 14.1718 15.8381 14.1281C15.825 14.0874 15.812 14.0466 15.7985 14.0046C15.7864 13.9671 15.7744 13.9296 15.7619 13.8909C15.7368 13.8095 15.7151 13.727 15.6944 13.6443C15.1516 13.6322 14.6088 13.6201 14.0495 13.6077C14.0375 13.6921 14.0254 13.7766 14.013 13.8636C13.9948 13.9336 13.9749 14.0033 13.9535 14.0725C13.942 14.1096 13.9306 14.1467 13.9188 14.1849C13.9069 14.2228 13.895 14.2608 13.8828 14.2999C13.8707 14.3388 13.8587 14.3778 13.8463 14.4179C13.8167 14.5134 13.787 14.6088 13.7571 14.7043C13.5521 14.7043 13.347 14.7043 13.1357 14.7043C13.2244 14.4322 13.3221 14.1639 13.4213 13.8955C13.5415 13.57 13.6603 13.2439 13.7761 12.9168C14.167 11.8136 14.167 11.8136 14.3465 11.3917C14.359 11.3621 14.3715 11.3325 14.3844 11.302C14.4506 11.1515 14.5194 11.0233 14.6344 10.9028C14.803 10.8466 14.9595 10.835 15.124 10.9019ZM14.8171 11.4877C14.739 11.7212 14.6609 11.9548 14.5829 12.1884C14.5563 12.268 14.5297 12.3475 14.5031 12.427C14.465 12.541 14.4269 12.6551 14.3888 12.7691C14.3708 12.8228 14.3708 12.8228 14.3525 12.8776C14.336 12.927 14.336 12.927 14.3192 12.9774C14.3095 13.0065 14.2997 13.0357 14.2897 13.0657C14.267 13.1267 14.267 13.1267 14.2689 13.1691C14.6428 13.1691 15.0167 13.1691 15.402 13.1691C15.4107 12.9291 15.4107 12.9291 15.3562 12.7238C15.3411 12.6847 15.3411 12.6847 15.3258 12.6448C15.3149 12.6177 15.3039 12.5907 15.2926 12.5628C15.2814 12.5342 15.2702 12.5056 15.2587 12.4761C15.2352 12.4161 15.2114 12.3562 15.1874 12.2964C15.1506 12.2047 15.1145 12.1127 15.0786 12.0207C15.0555 11.9623 15.0325 11.9039 15.0093 11.8455C14.9985 11.818 14.9877 11.7905 14.9766 11.7622C14.9167 11.6125 14.9167 11.6125 14.8171 11.4877Z" fill="white"/>
<path d="M6.98983 11.2918C7.178 11.4999 7.23927 11.7275 7.2871 11.9994C7.10499 12.0695 6.93157 12.0928 6.73882 12.1091C6.72553 12.0727 6.72553 12.0727 6.71198 12.0355C6.58388 11.698 6.44827 11.5295 6.11743 11.378C5.80185 11.2798 5.49342 11.3421 5.20363 11.4877C4.89228 11.6807 4.72655 12.0061 4.64164 12.3558C4.5634 12.8583 4.58554 13.4241 4.85881 13.866C5.03578 14.1047 5.24065 14.2164 5.5326 14.2656C5.87173 14.2998 6.20861 14.278 6.48524 14.06C6.66996 13.869 6.75922 13.6352 6.84848 13.3884C7.2344 13.4588 7.2344 13.4588 7.39676 13.5346C7.29292 13.9627 7.09319 14.3392 6.71655 14.5833C6.24155 14.8556 5.70999 14.8918 5.18307 14.7545C4.73736 14.6077 4.48138 14.3584 4.26469 13.9504C3.97969 13.3627 3.92856 12.6331 4.09336 11.9994C4.16554 11.793 4.25971 11.6192 4.39948 11.4511C4.4205 11.4256 4.44151 11.4001 4.46316 11.3739C4.71643 11.0949 5.05471 10.9327 5.42294 10.8663C5.44617 10.8614 5.4694 10.8566 5.49333 10.8516C6.03779 10.7603 6.59427 10.9123 6.98983 11.2918Z" fill="white"/>
<path d="M18.024 15.7181C18.4262 16.0378 18.8065 16.3832 19.1819 16.7337C19.2405 16.7881 19.2995 16.8421 19.3587 16.896C19.5677 17.0867 19.773 17.2804 19.9735 17.48C19.9931 17.4994 20.0127 17.5188 20.0329 17.5388C20.0862 17.5924 20.1386 17.6467 20.1905 17.7016C20.2199 17.7325 20.2492 17.7635 20.2795 17.7954C20.3367 17.8843 20.3367 17.8843 20.3349 17.9777C20.2594 18.1721 20.1079 18.3152 19.9392 18.4326C19.7045 18.5077 19.5287 18.4977 19.3064 18.3869C19.1476 18.29 19.0037 18.1811 18.8628 18.0601C18.8408 18.0412 18.8189 18.0224 18.7963 18.003C18.4796 17.7265 18.1897 17.4218 17.8963 17.1211C17.5922 16.8098 17.294 16.527 16.9374 16.276C16.7603 16.1411 16.7603 16.1411 16.7181 16.0567C16.7024 15.9037 16.7017 15.7686 16.7592 15.6249C17.1609 15.1563 17.6207 15.4037 18.024 15.7181Z" fill="white"/>
<path d="M15.2558 16.7513C15.4741 16.8681 15.515 17.0707 15.5847 17.2927C15.5982 17.3343 15.6117 17.3759 15.6256 17.4188C16.4386 19.9851 16.4386 19.9851 16.3158 20.4431C16.229 20.6076 16.134 20.73 15.9571 20.7972C15.7632 20.8249 15.5757 20.832 15.402 20.7355C15.2737 20.5177 15.205 20.2637 15.1333 20.023C15.1169 19.9686 15.1169 19.9686 15.1002 19.9132C14.9761 19.4946 14.8709 19.0714 14.7669 18.6474C14.7472 18.5683 14.7276 18.4891 14.7079 18.41C14.6724 18.2666 14.6368 18.1232 14.6016 17.9798C14.5947 17.9515 14.5877 17.9233 14.5806 17.8942C14.5121 17.6001 14.4436 17.2586 14.6024 16.9843C14.7633 16.7712 14.9954 16.6938 15.2558 16.7513Z" fill="white"/>
<path d="M12.7335 17.4091C12.8368 17.5176 12.9024 17.6338 12.9528 17.7746C12.9462 17.9173 12.8905 18.0428 12.8431 18.1767C12.8129 18.2834 12.7867 18.391 12.7609 18.4988C12.7533 18.5302 12.7457 18.5616 12.7379 18.5939C12.6636 18.9109 12.6065 19.2307 12.549 19.551C12.2406 21.2683 12.2406 21.2683 11.8905 21.5806C11.6862 21.711 11.5476 21.7377 11.3079 21.7223C11.1983 21.6492 11.1983 21.6492 11.1736 21.5809C11.1331 21.3146 11.1737 21.0624 11.2303 20.8016C11.2382 20.7647 11.246 20.7279 11.2542 20.6899C11.4279 19.9011 11.6331 19.1153 11.8859 18.348C11.8987 18.3091 11.9114 18.2702 11.9245 18.2301C12.0423 17.8846 12.1592 17.5713 12.4982 17.3977C12.6 17.369 12.6361 17.3706 12.7335 17.4091Z" fill="white"/>
<path d="M10.8331 17.2264C10.904 17.2835 10.904 17.2835 10.9428 17.3726C10.9628 17.5774 10.9541 17.6825 10.8222 17.8503C10.8047 17.8713 10.7872 17.8924 10.7692 17.9141C10.7316 17.9624 10.6942 18.0108 10.6569 18.0594C10.6376 18.0846 10.6182 18.1099 10.5982 18.1358C10.5037 18.2632 10.4192 18.3964 10.3351 18.5309C10.3174 18.5592 10.2997 18.5874 10.2814 18.6166C10.1698 18.796 10.0604 18.9767 9.95161 19.1578C8.93175 20.8549 8.93175 20.8549 8.4938 21.0644C8.36358 21.0918 8.36358 21.0918 8.23794 21.0644C8.15278 20.9776 8.09384 20.8874 8.05518 20.772C8.07252 20.627 8.12149 20.5231 8.19496 20.3979C8.21709 20.3601 8.23923 20.3224 8.26203 20.2835C8.2865 20.2427 8.31096 20.2018 8.33617 20.1597C8.34878 20.1386 8.36138 20.1174 8.37437 20.0956C8.84944 19.2992 9.37032 18.522 9.91934 17.7747C9.94601 17.7379 9.97267 17.7011 10.0002 17.6632C10.2163 17.377 10.4591 17.1411 10.8331 17.2264Z" fill="white"/>
<path d="M23.4798 8.05176C23.5432 8.10116 23.5432 8.10116 23.5894 8.16141C23.5855 8.34237 23.5241 8.43099 23.4067 8.56349C23.063 8.83959 22.6264 9.01261 22.2324 9.20315C22.1781 9.22955 22.1781 9.22955 22.1227 9.25649C21.3468 9.63359 20.5676 10.0104 19.7674 10.334C19.7309 10.3492 19.7309 10.3492 19.6937 10.3647C19.491 10.443 19.3007 10.4622 19.0935 10.3888C19.0204 10.318 19.0204 10.318 18.9976 10.1969C19.0309 10.0004 19.1393 9.88936 19.2957 9.77542C19.9766 9.39556 20.6909 9.07043 21.4036 8.75544C21.5248 8.70129 21.6453 8.64589 21.7658 8.59047C23.0637 7.99534 23.0637 7.99534 23.4798 8.05176Z" fill="white"/>
<path d="M11.1619 10.8663C11.1619 11.9881 11.1619 13.1099 11.1619 14.2657C11.753 14.2657 12.344 14.2657 12.953 14.2657C12.953 14.4104 12.953 14.5552 12.953 14.7043C12.1569 14.7043 11.3608 14.7043 10.5405 14.7043C10.5405 13.486 10.5405 12.2677 10.5405 11.0125C11.1254 10.8663 11.1254 10.8663 11.1619 10.8663Z" fill="white"/>
<path d="M21.3189 6.47548C21.361 6.47614 21.4031 6.4768 21.4465 6.47748C21.4783 6.47833 21.51 6.47918 21.5427 6.48005C21.5427 6.74851 21.4818 6.86961 21.2952 7.06089C21.1736 7.17606 21.0498 7.28645 20.9213 7.39385C20.8863 7.42392 20.8513 7.45398 20.8153 7.48495C20.5921 7.67636 20.3651 7.86182 20.133 8.04229C19.9955 8.14938 19.86 8.25862 19.7255 8.36944C19.3787 8.65484 19.0205 8.92376 18.6551 9.18491C18.6341 9.20024 18.6131 9.21557 18.5915 9.23137C18.4269 9.34775 18.3403 9.35653 18.1434 9.33112C18.0497 9.27401 18.0497 9.27401 17.9972 9.18491C17.9877 9.02122 18.0285 8.92041 18.1297 8.79654C18.4405 8.46792 18.8024 8.18521 19.1595 7.90904C19.3122 7.79045 19.4595 7.66681 19.6055 7.54006C19.8344 7.34162 20.0697 7.1531 20.3095 6.96806C20.3745 6.91754 20.4389 6.86629 20.5031 6.81487C20.5451 6.7817 20.587 6.74852 20.6289 6.71536C20.6659 6.68591 20.7028 6.65646 20.7409 6.62612C20.9316 6.49653 21.0909 6.47083 21.3189 6.47548Z" fill="white"/>
<path d="M9.44408 16.276C9.55374 16.3491 9.55374 16.3491 9.58801 16.4474C9.59156 16.6356 9.50743 16.7525 9.38754 16.8884C9.25993 17.0193 9.12276 17.1387 8.98433 17.2578C8.8923 17.3391 8.80272 17.4227 8.71319 17.5067C8.5094 17.698 8.30308 17.882 8.08466 18.0567C8.01143 18.1163 7.93993 18.1763 7.86906 18.2386C7.61718 18.4597 7.35838 18.669 7.09104 18.8712C7.04542 18.9061 7.04542 18.9061 6.99888 18.9416C6.55115 19.2766 6.55115 19.2766 6.30288 19.2687C6.26594 19.2582 6.229 19.2476 6.19094 19.2368C6.14941 19.1537 6.14472 19.0985 6.14068 19.006C6.13889 18.9783 6.1371 18.9505 6.13525 18.9219C6.16376 18.792 6.23926 18.7395 6.33715 18.6519C6.36867 18.6226 6.40019 18.5933 6.43267 18.5631C6.60657 18.4056 6.78109 18.249 6.95811 18.0949C7.16118 17.9171 7.36076 17.7354 7.5587 17.5519C7.74746 17.3772 7.94069 17.2113 8.14134 17.0502C8.23624 16.9719 8.32607 16.8899 8.41605 16.806C9.04722 16.2297 9.04722 16.2297 9.44408 16.276Z" fill="white"/>
<path d="M7.65283 11.9629C7.84583 11.9991 8.03882 12.0353 8.23767 12.0725C8.29751 12.2512 8.35732 12.4299 8.41704 12.6086C8.43729 12.6692 8.45757 12.7298 8.47786 12.7904C8.8225 13.819 8.8225 13.819 8.8225 13.9733C8.84663 13.9733 8.87075 13.9733 8.89561 13.9733C8.90193 13.951 8.90825 13.9288 8.91476 13.9059C8.98007 13.6818 9.0566 13.465 9.14262 13.2481C9.16173 13.1993 9.16173 13.1993 9.18122 13.1496C9.22143 13.0472 9.26183 12.9448 9.30225 12.8424C9.34289 12.7391 9.38348 12.6358 9.42406 12.5325C9.44919 12.4685 9.47437 12.4046 9.4996 12.3406C9.51095 12.3118 9.52231 12.283 9.534 12.2533C9.54398 12.228 9.55396 12.2028 9.56424 12.1767C9.58662 12.1182 9.60684 12.0589 9.62665 11.9994C9.80758 11.9874 9.98852 11.9753 10.1749 11.9629C10.0941 12.2808 9.98848 12.5843 9.87195 12.8907C9.85333 12.94 9.83473 12.9893 9.81614 13.0387C9.77748 13.1411 9.7387 13.2435 9.69983 13.3459C9.64993 13.4773 9.60029 13.6088 9.55074 13.7403C9.5125 13.8418 9.47416 13.9432 9.43578 14.0445C9.41742 14.0931 9.39909 14.1416 9.38078 14.1901C9.35534 14.2575 9.32975 14.3249 9.30416 14.3922C9.28964 14.4305 9.27511 14.4688 9.26015 14.5083C9.22458 14.5946 9.22458 14.5946 9.18802 14.6312C9.08946 14.6339 8.99185 14.6346 8.89332 14.6335C8.86559 14.6333 8.83786 14.6332 8.80929 14.633C8.74059 14.6326 8.67189 14.6319 8.60319 14.6312C8.47907 14.2996 8.35514 13.9679 8.23146 13.6361C8.17402 13.482 8.11652 13.328 8.05887 13.174C8.00325 13.0255 7.94781 12.8768 7.89249 12.7282C7.87134 12.6714 7.85012 12.6147 7.82883 12.558C7.79908 12.4787 7.76955 12.3993 7.74007 12.3199C7.73119 12.2963 7.7223 12.2728 7.71314 12.2486C7.6758 12.1473 7.65283 12.0719 7.65283 11.9629Z" fill="white"/>
<path d="M8.89582 14.9601C9.00091 15.0332 9.00091 15.0332 9.07858 15.1063C8.96903 15.4958 8.60207 15.6874 8.27443 15.8739C8.10492 15.966 7.93326 16.0533 7.76042 16.1389C7.73723 16.1505 7.71404 16.162 7.69015 16.174C7.18737 16.4244 6.6741 16.6479 6.1544 16.8608C6.12284 16.8744 6.09127 16.888 6.05875 16.902C5.94051 16.9453 5.84053 16.9433 5.71578 16.9339C5.62236 16.8405 5.6326 16.7753 5.62939 16.6476C5.64751 16.5395 5.68926 16.4753 5.75233 16.3856C5.83926 16.3243 5.83926 16.3243 5.94266 16.27C5.98103 16.2496 6.0194 16.2291 6.05894 16.2081C6.12089 16.1761 6.12089 16.1761 6.1841 16.1435C6.22736 16.1208 6.27061 16.098 6.31384 16.0752C6.44308 16.0074 6.57284 15.9406 6.70269 15.8739C6.73798 15.8557 6.77328 15.8374 6.80965 15.8187C7.22171 15.6066 7.63978 15.4074 8.05969 15.2114C8.0822 15.2009 8.10472 15.1903 8.12792 15.1794C8.19201 15.1495 8.25621 15.1198 8.32041 15.09C8.3574 15.0729 8.39439 15.0557 8.43251 15.038C8.58988 14.9714 8.72417 14.9426 8.89582 14.9601Z" fill="white"/>
<path d="M18.4999 6.00027C18.5427 6.00093 18.5855 6.00159 18.6296 6.00227C18.6785 6.00354 18.6785 6.00354 18.7284 6.00484C18.7649 6.11449 18.7649 6.11449 18.7367 6.18866C18.5572 6.50972 18.3539 6.81448 18.1491 7.11981C18.0872 7.21212 18.0257 7.30463 17.9641 7.39717C17.7604 7.70268 17.5534 8.00585 17.3407 8.3052C17.3123 8.34575 17.3123 8.34575 17.2833 8.38712C17.1566 8.56353 17.0258 8.72026 16.8276 8.81935C16.7457 8.82678 16.7457 8.82678 16.6495 8.82849C16.6179 8.82943 16.5863 8.83038 16.5538 8.83135C16.4457 8.8172 16.3966 8.78102 16.3159 8.7097C16.3337 8.51023 16.4055 8.38408 16.5124 8.22081C16.5287 8.19539 16.545 8.16997 16.5617 8.14377C16.7415 7.8651 16.9299 7.59235 17.1201 7.32071C17.1568 7.26798 17.1935 7.21525 17.2302 7.16251C17.4021 6.91622 17.5761 6.67155 17.7574 6.43204C17.7853 6.39524 17.8131 6.35844 17.8418 6.32053C18.0387 6.0902 18.1982 5.99423 18.4999 6.00027Z" fill="white"/>
<path d="M15.8406 6.40697C15.833 6.43604 15.8254 6.46511 15.8176 6.49507C15.7522 6.75087 15.6905 7.00699 15.6341 7.26495C15.6232 7.31437 15.6124 7.36379 15.6015 7.41322C15.5852 7.4872 15.5691 7.5612 15.5533 7.6353C15.3379 8.6478 15.3379 8.6478 14.9999 8.92907C14.8634 9.01032 14.7566 9.01688 14.5978 9.00218C14.4735 8.81573 14.5062 8.6212 14.5483 8.40683C14.5813 8.27169 14.6174 8.13779 14.6549 8.00384C14.6683 7.95532 14.6817 7.9068 14.695 7.85828C14.7347 7.71536 14.7757 7.57286 14.8171 7.43043C14.8288 7.39013 14.8405 7.34982 14.8525 7.3083C14.8838 7.20244 14.9163 7.09706 14.9496 6.99181C14.9588 6.96131 14.9681 6.93081 14.9775 6.89938C15.0447 6.69602 15.127 6.58117 15.2923 6.44352C15.4867 6.36268 15.6324 6.37264 15.8406 6.40697Z" fill="white"/>
<path d="M12.7336 7.50354C12.8544 7.62924 12.9078 7.74349 12.9542 7.91004C12.9665 7.95332 12.9787 7.99659 12.9913 8.04118C13.0035 8.08616 13.0157 8.13113 13.0283 8.17747C13.0407 8.22117 13.0531 8.26487 13.0658 8.3099C13.1282 8.53382 13.1859 8.75872 13.2384 8.98519C13.2477 9.02533 13.257 9.06548 13.2666 9.10684C13.2867 9.25748 13.2776 9.3831 13.2028 9.51691C13.1033 9.63475 13.0465 9.69019 12.8958 9.73779C12.7485 9.73243 12.6961 9.72341 12.5874 9.62356C12.4409 9.37231 12.3764 9.08309 12.3052 8.80373C12.2859 8.72805 12.2658 8.65259 12.2456 8.57711C12.0844 7.96104 12.0844 7.96104 12.1916 7.74698C12.2107 7.72771 12.2297 7.70844 12.2493 7.68858C12.268 7.66865 12.2866 7.64872 12.3059 7.62819C12.4415 7.51591 12.5573 7.47783 12.7336 7.50354Z" fill="white"/>
<path d="M10.2115 9.22152C10.567 9.389 10.8677 9.67903 11.1654 9.93052C11.2295 9.98448 11.2941 10.0377 11.3589 10.0908C11.4585 10.1755 11.5149 10.2335 11.5639 10.3546C11.5662 10.4803 11.5639 10.568 11.4795 10.6662C11.3498 10.7781 11.2471 10.8252 11.0773 10.8412C10.8266 10.82 10.648 10.6251 10.4651 10.4643C10.4415 10.4436 10.418 10.4229 10.3937 10.4016C10.3449 10.3587 10.2962 10.3156 10.2476 10.2725C10.1771 10.2103 10.106 10.1489 10.0349 10.0875C9.99168 10.0494 9.94851 10.0113 9.90538 9.97313C9.88516 9.95591 9.86494 9.93868 9.84411 9.92094C9.74894 9.83532 9.70201 9.77753 9.66607 9.65344C9.66242 9.52153 9.69155 9.47074 9.77288 9.36773C9.91517 9.22148 10.0094 9.18566 10.2115 9.22152Z" fill="white"/>
<path d="M23.7338 10.7818C23.7775 10.7809 23.7775 10.7809 23.8221 10.78C24.0029 10.7799 24.1285 10.8013 24.2843 10.9029C24.3574 11.0126 24.3574 11.0126 24.3597 11.1336C24.3063 11.3189 24.2245 11.3866 24.065 11.4877C23.7536 11.6305 23.4194 11.6921 23.085 11.755C23.0573 11.7603 23.0297 11.7656 23.0012 11.7711C22.4903 11.8689 21.9771 11.951 21.4629 12.0292C21.4277 12.0345 21.3924 12.0399 21.3561 12.0454C19.6047 12.3105 19.6047 12.3105 19.2767 12.1091C19.2378 12.0269 19.2378 12.0269 19.2401 11.9264C19.2949 11.7984 19.2949 11.7984 19.3498 11.6705C19.3426 11.567 19.3426 11.567 19.3132 11.4877C18.9765 11.3542 18.5672 11.2631 18.2198 11.4078C17.8702 11.6068 17.6996 11.8931 17.5657 12.2642C17.4282 12.7668 17.5175 13.3277 17.762 13.7812C17.9149 14.0209 18.1186 14.2 18.3994 14.2657C18.5833 14.2769 18.7636 14.2744 18.9477 14.2657C18.9477 14.2536 18.9477 14.2416 18.9477 14.2291C18.9252 14.2278 18.9028 14.2264 18.8796 14.225C18.8501 14.2226 18.8205 14.2202 18.7901 14.2177C18.7608 14.2156 18.7316 14.2135 18.7014 14.2113C18.6041 14.1893 18.5708 14.1598 18.5091 14.0829C18.4567 13.9782 18.4613 13.907 18.4725 13.7905C18.5538 13.6174 18.6652 13.5066 18.8346 13.4224C19.2915 13.2851 19.7402 13.3951 20.1807 13.535C20.6808 13.6846 21.1988 13.7408 21.7149 13.8093C22.0451 13.8535 22.3729 13.8989 22.6977 13.974C22.7222 13.9796 22.7467 13.9852 22.772 13.9909C22.9736 14.0404 23.143 14.0889 23.2609 14.2657C23.2943 14.4158 23.2913 14.5438 23.2113 14.6773C23.0637 14.8537 22.9141 14.9758 22.6806 15.0139C21.9462 15.0212 21.2152 14.7487 20.5151 14.5497C20.0025 14.4129 19.652 14.4995 19.1966 14.7464C18.8539 14.9071 18.374 14.8347 18.0326 14.7136C17.505 14.4905 17.2274 14.1249 17.0104 13.6078C16.805 13.0739 16.8433 12.4177 17.047 11.8898C17.1093 11.7583 17.1803 11.6415 17.2663 11.5243C17.2851 11.4985 17.3038 11.4726 17.3231 11.446C17.621 11.0726 18.0304 10.8925 18.4954 10.8366C18.8666 10.8136 19.2912 10.8342 19.6056 11.0491C19.6373 11.0706 19.669 11.0921 19.7016 11.1142C19.7663 11.159 19.8306 11.2045 19.8943 11.2506C20.1336 11.42 20.4723 11.3644 20.7494 11.324C21.3399 11.2227 21.9251 11.0896 22.5082 10.9526C22.9145 10.858 23.3153 10.7801 23.7338 10.7818Z" fill="white"/>
<path d="M15.124 10.9019C15.262 11.0092 15.2986 11.1342 15.3579 11.2953C15.3704 11.328 15.383 11.3606 15.396 11.3942C15.4374 11.5021 15.4779 11.6102 15.5185 11.7184C15.5472 11.7936 15.5759 11.8688 15.6047 11.9439C15.665 12.1012 15.725 12.2586 15.7848 12.4161C15.8758 12.6547 15.969 12.8925 16.0628 13.1301C16.0778 13.1681 16.0928 13.2061 16.1082 13.2453C16.1665 13.393 16.2248 13.5407 16.2832 13.6884C16.3235 13.7903 16.3635 13.8923 16.4036 13.9944C16.4153 14.0239 16.4271 14.0535 16.4392 14.0839C16.519 14.288 16.5839 14.4938 16.6448 14.7043C16.4397 14.7043 16.2346 14.7043 16.0234 14.7043C15.9753 14.555 15.9274 14.4058 15.8794 14.2565C15.8658 14.2141 15.8522 14.1718 15.8381 14.1281C15.825 14.0874 15.812 14.0466 15.7985 14.0046C15.7864 13.9671 15.7744 13.9296 15.7619 13.8909C15.7368 13.8095 15.7151 13.727 15.6944 13.6443C15.1516 13.6322 14.6088 13.6201 14.0495 13.6077C14.0375 13.6921 14.0254 13.7766 14.013 13.8636C13.9948 13.9336 13.9749 14.0033 13.9535 14.0725C13.942 14.1096 13.9306 14.1467 13.9188 14.1849C13.9069 14.2228 13.895 14.2608 13.8828 14.2999C13.8707 14.3388 13.8587 14.3778 13.8463 14.4179C13.8167 14.5134 13.787 14.6088 13.7571 14.7043C13.5521 14.7043 13.347 14.7043 13.1357 14.7043C13.2244 14.4322 13.3221 14.1639 13.4213 13.8955C13.5415 13.57 13.6603 13.2439 13.7761 12.9168C14.167 11.8136 14.167 11.8136 14.3465 11.3917C14.359 11.3621 14.3715 11.3325 14.3844 11.302C14.4506 11.1515 14.5194 11.0233 14.6344 10.9028C14.803 10.8466 14.9595 10.835 15.124 10.9019ZM14.8171 11.4877C14.739 11.7212 14.6609 11.9548 14.5829 12.1884C14.5563 12.268 14.5297 12.3475 14.5031 12.427C14.465 12.541 14.4269 12.6551 14.3888 12.7691C14.3708 12.8228 14.3708 12.8228 14.3525 12.8776C14.336 12.927 14.336 12.927 14.3192 12.9774C14.3095 13.0065 14.2997 13.0357 14.2897 13.0657C14.267 13.1267 14.267 13.1267 14.2689 13.1691C14.6428 13.1691 15.0167 13.1691 15.402 13.1691C15.4107 12.9291 15.4107 12.9291 15.3562 12.7238C15.3411 12.6847 15.3411 12.6847 15.3258 12.6448C15.3149 12.6177 15.3039 12.5907 15.2926 12.5628C15.2814 12.5342 15.2702 12.5056 15.2587 12.4761C15.2352 12.4161 15.2114 12.3562 15.1874 12.2964C15.1506 12.2047 15.1145 12.1127 15.0786 12.0207C15.0555 11.9623 15.0325 11.9039 15.0093 11.8455C14.9985 11.818 14.9877 11.7905 14.9766 11.7622C14.9167 11.6125 14.9167 11.6125 14.8171 11.4877Z" fill="white"/>
<path d="M6.98983 11.2918C7.178 11.4999 7.23927 11.7275 7.2871 11.9994C7.10499 12.0695 6.93157 12.0928 6.73882 12.1091C6.72553 12.0727 6.72553 12.0727 6.71198 12.0355C6.58388 11.698 6.44827 11.5295 6.11743 11.378C5.80185 11.2798 5.49342 11.3421 5.20363 11.4877C4.89228 11.6807 4.72655 12.0061 4.64164 12.3558C4.5634 12.8583 4.58554 13.4241 4.85881 13.866C5.03578 14.1047 5.24065 14.2164 5.5326 14.2656C5.87173 14.2998 6.20861 14.278 6.48524 14.06C6.66996 13.869 6.75922 13.6352 6.84848 13.3884C7.2344 13.4588 7.2344 13.4588 7.39676 13.5346C7.29292 13.9627 7.09319 14.3392 6.71655 14.5833C6.24155 14.8556 5.70999 14.8918 5.18307 14.7545C4.73736 14.6077 4.48138 14.3584 4.26469 13.9504C3.97969 13.3627 3.92856 12.6331 4.09336 11.9994C4.16554 11.793 4.25971 11.6192 4.39948 11.4511C4.4205 11.4256 4.44151 11.4001 4.46316 11.3739C4.71643 11.0949 5.05471 10.9327 5.42294 10.8663C5.44617 10.8614 5.4694 10.8566 5.49333 10.8516C6.03779 10.7603 6.59427 10.9123 6.98983 11.2918Z" fill="white"/>
<path d="M18.024 15.7181C18.4262 16.0378 18.8065 16.3832 19.1819 16.7337C19.2405 16.7881 19.2995 16.8421 19.3587 16.896C19.5677 17.0867 19.773 17.2804 19.9735 17.48C19.9931 17.4994 20.0127 17.5188 20.0329 17.5388C20.0862 17.5924 20.1386 17.6467 20.1905 17.7016C20.2199 17.7325 20.2492 17.7635 20.2795 17.7954C20.3367 17.8843 20.3367 17.8843 20.3349 17.9777C20.2594 18.1721 20.1079 18.3152 19.9392 18.4326C19.7045 18.5077 19.5287 18.4977 19.3064 18.3869C19.1476 18.29 19.0037 18.1811 18.8628 18.0601C18.8408 18.0412 18.8189 18.0224 18.7963 18.003C18.4796 17.7265 18.1897 17.4218 17.8963 17.1211C17.5922 16.8098 17.294 16.527 16.9374 16.276C16.7603 16.1411 16.7603 16.1411 16.7181 16.0567C16.7024 15.9037 16.7017 15.7686 16.7592 15.6249C17.1609 15.1563 17.6207 15.4037 18.024 15.7181Z" fill="white"/>
<path d="M15.2558 16.7513C15.4741 16.8681 15.515 17.0707 15.5847 17.2927C15.5982 17.3343 15.6117 17.3759 15.6256 17.4188C16.4386 19.9851 16.4386 19.9851 16.3158 20.4431C16.229 20.6076 16.134 20.73 15.9571 20.7972C15.7632 20.8249 15.5757 20.832 15.402 20.7355C15.2737 20.5177 15.205 20.2637 15.1333 20.023C15.1169 19.9686 15.1169 19.9686 15.1002 19.9132C14.9761 19.4946 14.8709 19.0714 14.7669 18.6474C14.7472 18.5683 14.7276 18.4891 14.7079 18.41C14.6724 18.2666 14.6368 18.1232 14.6016 17.9798C14.5947 17.9515 14.5877 17.9233 14.5806 17.8942C14.5121 17.6001 14.4436 17.2586 14.6024 16.9843C14.7633 16.7712 14.9954 16.6938 15.2558 16.7513Z" fill="white"/>
<path d="M12.7335 17.4091C12.8368 17.5176 12.9024 17.6338 12.9528 17.7746C12.9462 17.9173 12.8905 18.0428 12.8431 18.1767C12.8129 18.2834 12.7867 18.391 12.7609 18.4988C12.7533 18.5302 12.7457 18.5616 12.7379 18.5939C12.6636 18.9109 12.6065 19.2307 12.549 19.551C12.2406 21.2683 12.2406 21.2683 11.8905 21.5806C11.6862 21.711 11.5476 21.7377 11.3079 21.7223C11.1983 21.6492 11.1983 21.6492 11.1736 21.5809C11.1331 21.3146 11.1737 21.0624 11.2303 20.8016C11.2382 20.7647 11.246 20.7279 11.2542 20.6899C11.4279 19.9011 11.6331 19.1153 11.8859 18.348C11.8987 18.3091 11.9114 18.2702 11.9245 18.2301C12.0423 17.8846 12.1592 17.5713 12.4982 17.3977C12.6 17.369 12.6361 17.3706 12.7335 17.4091Z" fill="white"/>
<path d="M10.8331 17.2264C10.904 17.2835 10.904 17.2835 10.9428 17.3726C10.9628 17.5774 10.9541 17.6825 10.8222 17.8503C10.8047 17.8713 10.7872 17.8924 10.7692 17.9141C10.7316 17.9624 10.6942 18.0108 10.6569 18.0594C10.6376 18.0846 10.6182 18.1099 10.5982 18.1358C10.5037 18.2632 10.4192 18.3964 10.3351 18.5309C10.3174 18.5592 10.2997 18.5874 10.2814 18.6166C10.1698 18.796 10.0604 18.9767 9.95161 19.1578C8.93175 20.8549 8.93175 20.8549 8.4938 21.0644C8.36358 21.0918 8.36358 21.0918 8.23794 21.0644C8.15278 20.9776 8.09384 20.8874 8.05518 20.772C8.07252 20.627 8.12149 20.5231 8.19496 20.3979C8.21709 20.3601 8.23923 20.3224 8.26203 20.2835C8.2865 20.2427 8.31096 20.2018 8.33617 20.1597C8.34878 20.1386 8.36138 20.1174 8.37437 20.0956C8.84944 19.2992 9.37032 18.522 9.91934 17.7747C9.94601 17.7379 9.97267 17.7011 10.0002 17.6632C10.2163 17.377 10.4591 17.1411 10.8331 17.2264Z" fill="white"/>
<path d="M23.4798 8.05176C23.5432 8.10116 23.5432 8.10116 23.5894 8.16141C23.5855 8.34237 23.5241 8.43099 23.4067 8.56349C23.063 8.83959 22.6264 9.01261 22.2324 9.20315C22.1781 9.22955 22.1781 9.22955 22.1227 9.25649C21.3468 9.63359 20.5676 10.0104 19.7674 10.334C19.7309 10.3492 19.7309 10.3492 19.6937 10.3647C19.491 10.443 19.3007 10.4622 19.0935 10.3888C19.0204 10.318 19.0204 10.318 18.9976 10.1969C19.0309 10.0004 19.1393 9.88936 19.2957 9.77542C19.9766 9.39556 20.6909 9.07043 21.4036 8.75544C21.5248 8.70129 21.6453 8.64589 21.7658 8.59047C23.0637 7.99534 23.0637 7.99534 23.4798 8.05176Z" fill="white"/>
<path d="M11.1619 10.8663C11.1619 11.9881 11.1619 13.1099 11.1619 14.2657C11.753 14.2657 12.344 14.2657 12.953 14.2657C12.953 14.4104 12.953 14.5552 12.953 14.7043C12.1569 14.7043 11.3608 14.7043 10.5405 14.7043C10.5405 13.486 10.5405 12.2677 10.5405 11.0125C11.1254 10.8663 11.1254 10.8663 11.1619 10.8663Z" fill="white"/>
<path d="M21.3189 6.47548C21.361 6.47614 21.4031 6.4768 21.4465 6.47748C21.4783 6.47833 21.51 6.47918 21.5427 6.48005C21.5427 6.74851 21.4818 6.86961 21.2952 7.06089C21.1736 7.17606 21.0498 7.28645 20.9213 7.39385C20.8863 7.42392 20.8513 7.45398 20.8153 7.48495C20.5921 7.67636 20.3651 7.86182 20.133 8.04229C19.9955 8.14938 19.86 8.25862 19.7255 8.36944C19.3787 8.65484 19.0205 8.92376 18.6551 9.18491C18.6341 9.20024 18.6131 9.21557 18.5915 9.23137C18.4269 9.34775 18.3403 9.35653 18.1434 9.33112C18.0497 9.27401 18.0497 9.27401 17.9972 9.18491C17.9877 9.02122 18.0285 8.92041 18.1297 8.79654C18.4405 8.46792 18.8024 8.18521 19.1595 7.90904C19.3122 7.79045 19.4595 7.66681 19.6055 7.54006C19.8344 7.34162 20.0697 7.1531 20.3095 6.96806C20.3745 6.91754 20.4389 6.86629 20.5031 6.81487C20.5451 6.7817 20.587 6.74852 20.6289 6.71536C20.6659 6.68591 20.7028 6.65646 20.7409 6.62612C20.9316 6.49653 21.0909 6.47083 21.3189 6.47548Z" fill="white"/>
<path d="M9.44408 16.276C9.55374 16.3491 9.55374 16.3491 9.58801 16.4474C9.59156 16.6356 9.50743 16.7525 9.38754 16.8884C9.25993 17.0193 9.12276 17.1387 8.98433 17.2578C8.8923 17.3391 8.80272 17.4227 8.71319 17.5067C8.5094 17.698 8.30308 17.882 8.08466 18.0567C8.01143 18.1163 7.93993 18.1763 7.86906 18.2386C7.61718 18.4597 7.35838 18.669 7.09104 18.8712C7.04542 18.9061 7.04542 18.9061 6.99888 18.9416C6.55115 19.2766 6.55115 19.2766 6.30288 19.2687C6.26594 19.2582 6.229 19.2476 6.19094 19.2368C6.14941 19.1537 6.14472 19.0985 6.14068 19.006C6.13889 18.9783 6.1371 18.9505 6.13525 18.9219C6.16376 18.792 6.23926 18.7395 6.33715 18.6519C6.36867 18.6226 6.40019 18.5933 6.43267 18.5631C6.60657 18.4056 6.78109 18.249 6.95811 18.0949C7.16118 17.9171 7.36076 17.7354 7.5587 17.5519C7.74746 17.3772 7.94069 17.2113 8.14134 17.0502C8.23624 16.9719 8.32607 16.8899 8.41605 16.806C9.04722 16.2297 9.04722 16.2297 9.44408 16.276Z" fill="white"/>
<path d="M7.65283 11.9629C7.84583 11.9991 8.03882 12.0353 8.23767 12.0725C8.29751 12.2512 8.35732 12.4299 8.41704 12.6086C8.43729 12.6692 8.45757 12.7298 8.47786 12.7904C8.8225 13.819 8.8225 13.819 8.8225 13.9733C8.84663 13.9733 8.87075 13.9733 8.89561 13.9733C8.90193 13.951 8.90825 13.9288 8.91476 13.9059C8.98007 13.6818 9.0566 13.465 9.14262 13.2481C9.16173 13.1993 9.16173 13.1993 9.18122 13.1496C9.22143 13.0472 9.26183 12.9448 9.30225 12.8424C9.34289 12.7391 9.38348 12.6358 9.42406 12.5325C9.44919 12.4685 9.47437 12.4046 9.4996 12.3406C9.51095 12.3118 9.52231 12.283 9.534 12.2533C9.54398 12.228 9.55396 12.2028 9.56424 12.1767C9.58662 12.1182 9.60684 12.0589 9.62665 11.9994C9.80758 11.9874 9.98852 11.9753 10.1749 11.9629C10.0941 12.2808 9.98848 12.5843 9.87195 12.8907C9.85333 12.94 9.83473 12.9893 9.81614 13.0387C9.77748 13.1411 9.7387 13.2435 9.69983 13.3459C9.64993 13.4773 9.60029 13.6088 9.55074 13.7403C9.5125 13.8418 9.47416 13.9432 9.43578 14.0445C9.41742 14.0931 9.39909 14.1416 9.38078 14.1901C9.35534 14.2575 9.32975 14.3249 9.30416 14.3922C9.28964 14.4305 9.27511 14.4688 9.26015 14.5083C9.22458 14.5946 9.22458 14.5946 9.18802 14.6312C9.08946 14.6339 8.99185 14.6346 8.89332 14.6335C8.86559 14.6333 8.83786 14.6332 8.80929 14.633C8.74059 14.6326 8.67189 14.6319 8.60319 14.6312C8.47907 14.2996 8.35514 13.9679 8.23146 13.6361C8.17402 13.482 8.11652 13.328 8.05887 13.174C8.00325 13.0255 7.94781 12.8768 7.89249 12.7282C7.87134 12.6714 7.85012 12.6147 7.82883 12.558C7.79908 12.4787 7.76955 12.3993 7.74007 12.3199C7.73119 12.2963 7.7223 12.2728 7.71314 12.2486C7.6758 12.1473 7.65283 12.0719 7.65283 11.9629Z" fill="white"/>
<path d="M8.89582 14.9601C9.00091 15.0332 9.00091 15.0332 9.07858 15.1063C8.96903 15.4958 8.60207 15.6874 8.27443 15.8739C8.10492 15.966 7.93326 16.0533 7.76042 16.1389C7.73723 16.1505 7.71404 16.162 7.69015 16.174C7.18737 16.4244 6.6741 16.6479 6.1544 16.8608C6.12284 16.8744 6.09127 16.888 6.05875 16.902C5.94051 16.9453 5.84053 16.9433 5.71578 16.9339C5.62236 16.8405 5.6326 16.7753 5.62939 16.6476C5.64751 16.5395 5.68926 16.4753 5.75233 16.3856C5.83926 16.3243 5.83926 16.3243 5.94266 16.27C5.98103 16.2496 6.0194 16.2291 6.05894 16.2081C6.12089 16.1761 6.12089 16.1761 6.1841 16.1435C6.22736 16.1208 6.27061 16.098 6.31384 16.0752C6.44308 16.0074 6.57284 15.9406 6.70269 15.8739C6.73798 15.8557 6.77328 15.8374 6.80965 15.8187C7.22171 15.6066 7.63978 15.4074 8.05969 15.2114C8.0822 15.2009 8.10472 15.1903 8.12792 15.1794C8.19201 15.1495 8.25621 15.1198 8.32041 15.09C8.3574 15.0729 8.39439 15.0557 8.43251 15.038C8.58988 14.9714 8.72417 14.9426 8.89582 14.9601Z" fill="white"/>
<path d="M18.4999 6.00027C18.5427 6.00093 18.5855 6.00159 18.6296 6.00227C18.6785 6.00354 18.6785 6.00354 18.7284 6.00484C18.7649 6.11449 18.7649 6.11449 18.7367 6.18866C18.5572 6.50972 18.3539 6.81448 18.1491 7.11981C18.0872 7.21212 18.0257 7.30463 17.9641 7.39717C17.7604 7.70268 17.5534 8.00585 17.3407 8.3052C17.3123 8.34575 17.3123 8.34575 17.2833 8.38712C17.1566 8.56353 17.0258 8.72026 16.8276 8.81935C16.7457 8.82678 16.7457 8.82678 16.6495 8.82849C16.6179 8.82943 16.5863 8.83038 16.5538 8.83135C16.4457 8.8172 16.3966 8.78102 16.3159 8.7097C16.3337 8.51023 16.4055 8.38408 16.5124 8.22081C16.5287 8.19539 16.545 8.16997 16.5617 8.14377C16.7415 7.8651 16.9299 7.59235 17.1201 7.32071C17.1568 7.26798 17.1935 7.21525 17.2302 7.16251C17.4021 6.91622 17.5761 6.67155 17.7574 6.43204C17.7853 6.39524 17.8131 6.35844 17.8418 6.32053C18.0387 6.0902 18.1982 5.99423 18.4999 6.00027Z" fill="white"/>
<path d="M15.8406 6.40697C15.833 6.43604 15.8254 6.46511 15.8176 6.49507C15.7522 6.75087 15.6905 7.00699 15.6341 7.26495C15.6232 7.31437 15.6124 7.36379 15.6015 7.41322C15.5852 7.4872 15.5691 7.5612 15.5533 7.6353C15.3379 8.6478 15.3379 8.6478 14.9999 8.92907C14.8634 9.01032 14.7566 9.01688 14.5978 9.00218C14.4735 8.81573 14.5062 8.6212 14.5483 8.40683C14.5813 8.27169 14.6174 8.13779 14.6549 8.00384C14.6683 7.95532 14.6817 7.9068 14.695 7.85828C14.7347 7.71536 14.7757 7.57286 14.8171 7.43043C14.8288 7.39013 14.8405 7.34982 14.8525 7.3083C14.8838 7.20244 14.9163 7.09706 14.9496 6.99181C14.9588 6.96131 14.9681 6.93081 14.9775 6.89938C15.0447 6.69602 15.127 6.58117 15.2923 6.44352C15.4867 6.36268 15.6324 6.37264 15.8406 6.40697Z" fill="white"/>
<path d="M12.7336 7.50354C12.8544 7.62924 12.9078 7.74349 12.9542 7.91004C12.9665 7.95332 12.9787 7.99659 12.9913 8.04118C13.0035 8.08616 13.0157 8.13113 13.0283 8.17747C13.0407 8.22117 13.0531 8.26487 13.0658 8.3099C13.1282 8.53382 13.1859 8.75872 13.2384 8.98519C13.2477 9.02533 13.257 9.06548 13.2666 9.10684C13.2867 9.25748 13.2776 9.3831 13.2028 9.51691C13.1033 9.63475 13.0465 9.69019 12.8958 9.73779C12.7485 9.73243 12.6961 9.72341 12.5874 9.62356C12.4409 9.37231 12.3764 9.08309 12.3052 8.80373C12.2859 8.72805 12.2658 8.65259 12.2456 8.57711C12.0844 7.96104 12.0844 7.96104 12.1916 7.74698C12.2107 7.72771 12.2297 7.70844 12.2493 7.68858C12.268 7.66865 12.2866 7.64872 12.3059 7.62819C12.4415 7.51591 12.5573 7.47783 12.7336 7.50354Z" fill="white"/>
<path d="M10.2115 9.22152C10.567 9.389 10.8677 9.67903 11.1654 9.93052C11.2295 9.98448 11.2941 10.0377 11.3589 10.0908C11.4585 10.1755 11.5149 10.2335 11.5639 10.3546C11.5662 10.4803 11.5639 10.568 11.4795 10.6662C11.3498 10.7781 11.2471 10.8252 11.0773 10.8412C10.8266 10.82 10.648 10.6251 10.4651 10.4643C10.4415 10.4436 10.418 10.4229 10.3937 10.4016C10.3449 10.3587 10.2962 10.3156 10.2476 10.2725C10.1771 10.2103 10.106 10.1489 10.0349 10.0875C9.99168 10.0494 9.94851 10.0113 9.90538 9.97313C9.88516 9.95591 9.86494 9.93868 9.84411 9.92094C9.74894 9.83532 9.70201 9.77753 9.66607 9.65344C9.66242 9.52153 9.69155 9.47074 9.77288 9.36773C9.91517 9.22148 10.0094 9.18566 10.2115 9.22152Z" fill="white"/>
</svg>
