<svg width="28" height="28" viewBox="0 0 28 28" fill="none" xmlns="http://www.w3.org/2000/svg">
<rect width="28" height="28" rx="8" fill="#1D1D1B"/>
<path d="M22 6C22.5046 5.99984 22.9906 6.19041 23.3605 6.5335C23.7305 6.87659 23.9572 7.34684 23.995 7.85L24 8V20C24.0002 20.5046 23.8096 20.9906 23.4665 21.3605C23.1234 21.7305 22.6532 21.9572 22.15 21.995L22 22H6C5.49542 22.0002 5.00943 21.8096 4.63945 21.4665C4.26947 21.1234 4.04284 20.6532 4.005 20.15L4 20V8C3.99984 7.49542 4.19041 7.00943 4.5335 6.63945C4.87659 6.26947 5.34684 6.04284 5.85 6.005L6 6H22ZM22 9.414L15.06 16.354C14.7787 16.6349 14.3975 16.7927 14 16.7927C13.6025 16.7927 13.2213 16.6349 12.94 16.354L6 9.414V20H22V9.414ZM20.586 8H7.414L14 14.586L20.586 8Z" fill="white"/>
</svg>
