<svg width="28" height="28" viewBox="0 0 28 28" fill="none" xmlns="http://www.w3.org/2000/svg">
<rect width="28" height="28" rx="8" fill="#1D1D1B"/>
<path d="M21.7778 4C22.3671 4 22.9324 4.23413 23.3491 4.65087C23.7659 5.06762 24 5.63285 24 6.22222V21.7778C24 22.3671 23.7659 22.9324 23.3491 23.3491C22.9324 23.7659 22.3671 24 21.7778 24H6.22222C5.63285 24 5.06762 23.7659 4.65087 23.3491C4.23413 22.9324 4 22.3671 4 21.7778V6.22222C4 5.63285 4.23413 5.06762 4.65087 4.65087C5.06762 4.23413 5.63285 4 6.22222 4H21.7778ZM21.2222 21.2222V15.3333C21.2222 14.3727 20.8406 13.4513 20.1613 12.772C19.482 12.0927 18.5607 11.7111 17.6 11.7111C16.6556 11.7111 15.5556 12.2889 15.0222 13.1556V11.9222H11.9222V21.2222H15.0222V15.7444C15.0222 14.8889 15.7111 14.1889 16.5667 14.1889C16.9792 14.1889 17.3749 14.3528 17.6666 14.6445C17.9583 14.9362 18.1222 15.3319 18.1222 15.7444V21.2222H21.2222ZM8.31111 10.1778C8.80618 10.1778 9.28098 9.98111 9.63104 9.63104C9.98111 9.28098 10.1778 8.80618 10.1778 8.31111C10.1778 7.27778 9.34444 6.43333 8.31111 6.43333C7.81309 6.43333 7.33547 6.63117 6.98332 6.98332C6.63117 7.33547 6.43333 7.81309 6.43333 8.31111C6.43333 9.34444 7.27778 10.1778 8.31111 10.1778ZM9.85556 21.2222V11.9222H6.77778V21.2222H9.85556Z" fill="white"/>
</svg>
