<svg width="21" height="20" viewBox="0 0 21 20" fill="none" xmlns="http://www.w3.org/2000/svg">
<path d="M17.8459 0C18.4353 0 19.0005 0.234126 19.4172 0.650874C19.834 1.06762 20.0681 1.63285 20.0681 2.22222V17.7778C20.0681 18.3671 19.834 18.9324 19.4172 19.3491C19.0005 19.7659 18.4353 20 17.8459 20H2.29034C1.70097 20 1.13574 19.7659 0.718989 19.3491C0.302241 18.9324 0.0681152 18.3671 0.0681152 17.7778V2.22222C0.0681152 1.63285 0.302241 1.06762 0.718989 0.650874C1.13574 0.234126 1.70097 0 2.29034 0H17.8459ZM17.2903 17.2222V11.3333C17.2903 10.3727 16.9087 9.45133 16.2294 8.77204C15.5501 8.09274 14.6288 7.71111 13.6681 7.71111C12.7237 7.71111 11.6237 8.28889 11.0903 9.15556V7.92222H7.99034V17.2222H11.0903V11.7444C11.0903 10.8889 11.7792 10.1889 12.6348 10.1889C13.0473 10.1889 13.443 10.3528 13.7347 10.6445C14.0265 10.9362 14.1903 11.3319 14.1903 11.7444V17.2222H17.2903ZM4.37923 6.17778C4.8743 6.17778 5.34909 5.98111 5.69916 5.63104C6.04923 5.28098 6.24589 4.80618 6.24589 4.31111C6.24589 3.27778 5.41256 2.43333 4.37923 2.43333C3.88121 2.43333 3.40359 2.63117 3.05144 2.98332C2.69929 3.33547 2.50145 3.81309 2.50145 4.31111C2.50145 5.34444 3.34589 6.17778 4.37923 6.17778ZM5.92367 17.2222V7.92222H2.84589V17.2222H5.92367Z" fill="white"/>
</svg>
