<svg width="60" height="21" viewBox="0 0 60 21" fill="none" xmlns="http://www.w3.org/2000/svg">
<path d="M60 21H44.3311V19.6689H60V21ZM15.457 19.6367V20.9678H0V19.6367H15.457ZM40.6895 0C41.1653 3.7281e-05 41.5508 0.398229 41.5508 0.889648V20.0781C41.5507 20.5695 41.1653 20.9677 40.6895 20.9678H19.0986C18.6227 20.9678 18.2374 20.5695 18.2373 20.0781V0.889648C18.2373 0.398206 18.6227 0 19.0986 0H40.6895ZM58.4932 16.7471H59.999V18.1729H54.3164V16.7471H56.6738L55.3086 12.9746H48.8779L47.5254 16.7471H49.79V18.1729H44.3301V16.7471H45.8398L51.1094 2.24414H53.1797L58.4932 16.7471ZM7.74414 1.54297C9.28634 1.54297 10.6363 1.89535 11.793 2.60059C12.9503 3.30598 13.8507 4.28527 14.4932 5.53516C15.1355 6.78555 15.457 8.22129 15.457 9.8418C15.457 11.4623 15.1355 12.898 14.4932 14.1484C13.8501 15.3989 12.9497 16.3776 11.793 17.083C10.6363 17.7888 9.29986 18.1416 7.74414 18.1416C6.18834 18.1416 4.83151 17.7889 3.6748 17.083C2.51808 16.3776 1.61803 15.3989 0.975586 14.1484C0.332686 12.8981 0.0117289 11.4623 0.0117188 9.8418C0.0117188 8.22135 0.332718 6.78551 0.975586 5.53516C1.61802 4.28534 2.51811 3.30597 3.6748 2.60059C4.83151 1.89524 6.20189 1.54301 7.74414 1.54297ZM20.3926 3.63672H22.3008V16.7148H20.3926V18.1406H26.2178V16.7148H23.8438V4.3125L29.1611 16.9033H30.7646L36.041 4.27637V16.7158H33.667V18.1406H39.5527V16.7158H37.6455V3.63672H39.5537V2.21191H35.25L29.9932 14.8594L24.6758 2.21191H20.3926V3.63672ZM7.74414 3.21875C6.55365 3.2188 5.51218 3.5014 4.61914 4.06738C3.72606 4.63342 3.03305 5.41649 2.53906 6.41504C2.04507 7.41425 1.79785 8.55635 1.79785 9.8418C1.79786 11.1272 2.04508 12.2699 2.53906 13.2686C3.03304 14.2676 3.72609 15.0502 4.61914 15.6162C5.5116 16.1822 6.55424 16.4648 7.74414 16.4648C8.9341 16.4648 9.97308 16.1822 10.8594 15.6162C11.7452 15.0501 12.4397 14.2678 12.9404 13.2686C13.4406 12.27 13.6904 11.1272 13.6904 9.8418C13.6904 8.55642 13.4411 7.41421 12.9404 6.41504C12.4397 5.41583 11.7457 4.63345 10.8594 4.06738C9.97307 3.50199 8.9347 3.21875 7.74414 3.21875ZM49.3516 11.6533H54.8311L52.0781 4.04492L49.3516 11.6533Z" fill="white"/>
</svg>
